<svg xmlns="http://www.w3.org/2000/svg" xmlns:xlink="http://www.w3.org/1999/xlink" width="500" zoomAndPan="magnify" viewBox="0 0 375 374.999991" height="500" preserveAspectRatio="xMidYMid meet" version="1.0"><defs><clipPath id="6a9e06799c"><path d="M 162.207031 188 L 212.457031 188 L 212.457031 243.304688 L 162.207031 243.304688 Z M 162.207031 188 " clip-rule="nonzero"/></clipPath><clipPath id="1af435d43f"><path d="M 112.5 131.90625 L 262.5 131.90625 L 262.5 242.90625 L 112.5 242.90625 Z M 112.5 131.90625 " clip-rule="nonzero"/></clipPath></defs><path fill="#ffffff" d="M 207.101562 222.890625 C 208.195312 221.253906 208.816406 219.320312 208.816406 217.28125 C 208.816406 213.640625 206.921875 210.402344 203.789062 208.582031 L 200.332031 206.578125 L 200.332031 204.355469 L 205.027344 207.085938 C 208.160156 208.90625 210.054688 212.148438 210.054688 215.789062 C 210.054688 218.484375 208.996094 221.035156 207.101562 222.890625 Z M 207.101562 222.890625 " fill-opacity="1" fill-rule="nonzero"/><path fill="#ffffff" d="M 194.648438 217.320312 L 194.648438 230.464844 L 193.410156 231.191406 L 193.410156 218.847656 L 190.972656 218.847656 C 190.132812 218.847656 189.441406 218.15625 189.441406 217.320312 L 189.441406 200.277344 L 184.382812 197.363281 L 184.382812 195.144531 L 190.71875 198.785156 L 190.71875 215.789062 C 190.71875 216.628906 191.410156 217.320312 192.246094 217.320312 Z M 194.648438 217.320312 " fill-opacity="1" fill-rule="nonzero"/><g clip-path="url(#6a9e06799c)"><path fill="#ffffff" d="M 178.664062 239.53125 C 178.265625 239.675781 177.828125 239.824219 177.425781 239.933594 C 174.949219 240.550781 172.328125 240.1875 170.035156 238.875 C 166.902344 237.054688 165.007812 233.816406 165.007812 230.171875 L 165.007812 201.335938 C 165.007812 199.257812 165.59375 197.328125 166.683594 195.726562 C 167.523438 194.488281 168.652344 193.433594 170 192.632812 C 171.492188 191.792969 173.058594 191.320312 174.695312 191.285156 L 174.695312 215.789062 C 174.695312 216.628906 175.386719 217.320312 176.226562 217.320312 L 178.664062 217.320312 Z M 206.339844 204.609375 L 181.46875 190.191406 C 177.460938 187.859375 172.65625 187.859375 168.613281 190.191406 C 166.9375 191.175781 165.554688 192.449219 164.5 193.941406 C 163.007812 196.054688 162.207031 198.601562 162.207031 201.335938 L 162.207031 230.136719 C 162.207031 234.796875 164.609375 238.984375 168.613281 241.28125 C 170.617188 242.445312 172.839844 243.027344 175.058594 243.027344 C 176.007812 243.027344 176.953125 242.917969 177.863281 242.699219 C 178.628906 242.515625 179.648438 242.300781 180.339844 241.863281 C 180.339844 241.863281 180.375 241.863281 180.414062 241.824219 L 180.414062 217.246094 L 182.851562 217.246094 C 182.925781 217.246094 183.035156 217.246094 183.105469 217.210938 C 183.796875 217.066406 184.34375 216.445312 184.34375 215.71875 L 184.34375 195.105469 L 190.644531 198.75 L 190.644531 215.753906 C 190.644531 216.589844 191.335938 217.28125 192.171875 217.28125 L 194.613281 217.28125 L 194.613281 230.429688 L 193.375 231.15625 L 182.960938 237.164062 L 182.960938 240.441406 L 196.324219 232.722656 L 196.324219 229.445312 L 196.289062 229.445312 L 196.289062 217.28125 L 198.726562 217.28125 C 198.800781 217.28125 198.910156 217.28125 198.984375 217.246094 C 199.675781 217.101562 200.222656 216.480469 200.222656 215.753906 L 200.222656 204.320312 L 204.917969 207.050781 C 208.050781 208.871094 209.945312 212.113281 209.945312 215.753906 C 209.945312 218.484375 208.886719 221.035156 206.992188 222.890625 C 206.375 223.507812 205.683594 224.019531 204.917969 224.457031 L 198.875 227.953125 L 198.875 231.230469 L 206.339844 226.894531 C 207.394531 226.277344 208.378906 225.511719 209.179688 224.675781 C 211.4375 222.308594 212.746094 219.175781 212.746094 215.753906 C 212.785156 211.09375 210.378906 206.941406 206.339844 204.609375 Z M 206.339844 204.609375 " fill-opacity="1" fill-rule="nonzero"/></g><path fill="#ffffff" d="M 178.699219 217.320312 L 178.699219 239.53125 C 178.300781 239.675781 177.863281 239.824219 177.460938 239.933594 L 177.460938 218.8125 L 175.023438 218.8125 C 174.1875 218.8125 173.492188 218.121094 173.492188 217.28125 L 173.492188 192.8125 C 171.855469 192.886719 170.253906 193.324219 168.796875 194.160156 C 168.03125 194.597656 167.339844 195.144531 166.722656 195.761719 C 167.558594 194.523438 168.6875 193.46875 170.035156 192.667969 C 171.527344 191.832031 173.128906 191.355469 174.730469 191.320312 L 174.730469 215.828125 C 174.730469 216.664062 175.421875 217.355469 176.261719 217.355469 L 178.699219 217.355469 Z M 178.699219 217.320312 " fill-opacity="1" fill-rule="nonzero"/><path fill="#545454" d="M 180.703125 193.140625 L 182.851562 194.378906 L 182.851562 210.582031 Z M 180.703125 193.140625 " fill-opacity="1" fill-rule="nonzero"/><path fill="#545454" d="M 197.671875 202.679688 L 199.128906 203.519531 L 199.128906 214.40625 Z M 197.671875 202.679688 " fill-opacity="1" fill-rule="nonzero"/><g clip-path="url(#1af435d43f)"><path fill="#ffffff" d="M 250.78125 193.882812 C 250.054688 159.605469 221.96875 131.90625 187.5 131.90625 C 153.03125 131.90625 124.945312 159.605469 124.21875 193.882812 C 117.257812 197.894531 112.570312 205.433594 112.570312 214.039062 L 112.570312 219.839844 C 112.570312 232.167969 122.1875 242.273438 134.324219 243.046875 C 134.371094 243.046875 134.371094 243.046875 134.421875 243.046875 C 134.855469 243.09375 135.339844 243.09375 135.820312 243.09375 L 141.285156 243.09375 C 145.828125 243.09375 149.503906 239.417969 149.503906 234.875 L 149.503906 199.003906 C 149.503906 194.460938 145.828125 190.789062 141.285156 190.789062 L 136.742188 190.789062 C 138.335938 178.894531 144.089844 167.921875 153.03125 159.800781 C 162.457031 151.242188 174.6875 146.503906 187.402344 146.503906 C 200.40625 146.503906 212.78125 151.386719 222.304688 160.285156 C 231.007812 168.40625 236.519531 179.136719 238.113281 190.835938 L 233.714844 190.835938 C 229.171875 190.835938 225.496094 194.507812 225.496094 199.054688 L 225.496094 234.875 C 225.496094 239.417969 229.171875 243.09375 233.714844 243.09375 L 239.179688 243.09375 C 239.660156 243.09375 240.097656 243.09375 240.578125 243.046875 C 240.628906 243.046875 240.628906 243.046875 240.675781 243.046875 C 252.8125 242.273438 262.429688 232.167969 262.429688 219.839844 L 262.429688 214.039062 C 262.429688 205.433594 257.742188 197.894531 250.78125 193.882812 Z M 117.402344 219.839844 L 117.402344 214.039062 C 117.402344 204.855469 124.171875 197.167969 133.019531 195.816406 C 134.324219 196.296875 135.289062 197.554688 135.289062 199.003906 L 135.289062 234.875 C 135.289062 236.277344 134.371094 237.582031 133.019531 238.066406 C 124.171875 236.710938 117.402344 229.027344 117.402344 219.839844 Z M 141.285156 195.621094 C 143.171875 195.621094 144.667969 197.121094 144.667969 199.003906 L 144.667969 234.875 C 144.667969 236.761719 143.171875 238.257812 141.285156 238.257812 L 139.398438 238.257812 C 139.882812 237.246094 140.125 236.085938 140.125 234.875 L 140.125 199.003906 C 140.125 197.796875 139.882812 196.636719 139.398438 195.621094 Z M 225.640625 156.707031 C 215.25 146.988281 201.664062 141.671875 187.453125 141.671875 C 173.480469 141.671875 160.136719 146.84375 149.792969 156.222656 C 139.738281 165.359375 133.40625 177.734375 131.808594 191.175781 C 130.890625 191.320312 130.019531 191.5625 129.152344 191.800781 C 130.9375 161.105469 156.414062 136.742188 187.5 136.742188 C 218.585938 136.742188 244.0625 161.105469 245.847656 191.753906 C 244.929688 191.464844 244.011719 191.269531 243.046875 191.125 C 241.5 177.976562 235.40625 165.84375 225.640625 156.707031 Z M 233.714844 238.257812 C 231.828125 238.257812 230.332031 236.761719 230.332031 234.875 L 230.332031 199.003906 C 230.332031 197.121094 231.828125 195.621094 233.714844 195.621094 L 235.601562 195.621094 C 235.117188 196.636719 234.875 197.796875 234.875 199.003906 L 234.875 234.875 C 234.875 236.085938 235.117188 237.246094 235.601562 238.257812 Z M 257.597656 219.839844 C 257.597656 229.027344 250.828125 236.710938 241.980469 238.066406 C 240.675781 237.582031 239.710938 236.324219 239.710938 234.875 L 239.710938 199.003906 C 239.710938 197.699219 240.484375 196.539062 241.644531 195.960938 C 241.738281 195.910156 241.886719 195.863281 241.980469 195.816406 C 250.828125 197.167969 257.597656 204.855469 257.597656 214.039062 Z M 257.597656 219.839844 " fill-opacity="1" fill-rule="nonzero"/></g></svg>