<svg xmlns="http://www.w3.org/2000/svg" xmlns:xlink="http://www.w3.org/1999/xlink" width="500" zoomAndPan="magnify" viewBox="0 0 375 374.999991" height="500" preserveAspectRatio="xMidYMid meet" version="1.0"><defs><clipPath id="4470d50fe2"><path d="M 162.207031 188 L 212.457031 188 L 212.457031 243.304688 L 162.207031 243.304688 Z M 162.207031 188 " clip-rule="nonzero"/></clipPath><clipPath id="9bae630234"><path d="M 112.5 131.90625 L 262.5 131.90625 L 262.5 242.90625 L 112.5 242.90625 Z M 112.5 131.90625 " clip-rule="nonzero"/></clipPath></defs><path fill="#000000" d="M 207.101562 222.890625 C 208.195312 221.253906 208.816406 219.320312 208.816406 217.28125 C 208.816406 213.640625 206.921875 210.402344 203.789062 208.582031 L 200.332031 206.578125 L 200.332031 204.355469 L 205.027344 207.085938 C 208.160156 208.90625 210.054688 212.148438 210.054688 215.789062 C 210.054688 218.484375 208.996094 221.035156 207.101562 222.890625 Z M 207.101562 222.890625 " fill-opacity="1" fill-rule="nonzero"/><path fill="#000000" d="M 194.648438 217.320312 L 194.648438 230.464844 L 193.410156 231.191406 L 193.410156 218.847656 L 190.972656 218.847656 C 190.132812 218.847656 189.441406 218.15625 189.441406 217.320312 L 189.441406 200.277344 L 184.382812 197.363281 L 184.382812 195.144531 L 190.71875 198.785156 L 190.71875 215.789062 C 190.71875 216.628906 191.410156 217.320312 192.246094 217.320312 Z M 194.648438 217.320312 " fill-opacity="1" fill-rule="nonzero"/><g clip-path="url(#4470d50fe2)"><path fill="#000000" d="M 178.664062 239.53125 C 178.265625 239.675781 177.828125 239.824219 177.425781 239.933594 C 174.949219 240.550781 172.328125 240.1875 170.035156 238.875 C 166.902344 237.054688 165.007812 233.816406 165.007812 230.171875 L 165.007812 201.335938 C 165.007812 199.257812 165.59375 197.328125 166.683594 195.726562 C 167.523438 194.488281 168.652344 193.433594 170 192.632812 C 171.492188 191.792969 173.058594 191.320312 174.695312 191.285156 L 174.695312 215.789062 C 174.695312 216.628906 175.386719 217.320312 176.226562 217.320312 L 178.664062 217.320312 Z M 206.339844 204.609375 L 181.46875 190.191406 C 177.460938 187.859375 172.65625 187.859375 168.613281 190.191406 C 166.9375 191.175781 165.554688 192.449219 164.5 193.941406 C 163.007812 196.054688 162.207031 198.601562 162.207031 201.335938 L 162.207031 230.136719 C 162.207031 234.796875 164.609375 238.984375 168.613281 241.28125 C 170.617188 242.445312 172.839844 243.027344 175.058594 243.027344 C 176.007812 243.027344 176.953125 242.917969 177.863281 242.699219 C 178.628906 242.515625 179.648438 242.300781 180.339844 241.863281 C 180.339844 241.863281 180.375 241.863281 180.414062 241.824219 L 180.414062 217.246094 L 182.851562 217.246094 C 182.925781 217.246094 183.035156 217.246094 183.105469 217.210938 C 183.796875 217.066406 184.34375 216.445312 184.34375 215.71875 L 184.34375 195.105469 L 190.644531 198.75 L 190.644531 215.753906 C 190.644531 216.589844 191.335938 217.28125 192.171875 217.28125 L 194.613281 217.28125 L 194.613281 230.429688 L 193.375 231.15625 L 182.960938 237.164062 L 182.960938 240.441406 L 196.324219 232.722656 L 196.324219 229.445312 L 196.289062 229.445312 L 196.289062 217.28125 L 198.726562 217.28125 C 198.800781 217.28125 198.910156 217.28125 198.984375 217.246094 C 199.675781 217.101562 200.222656 216.480469 200.222656 215.753906 L 200.222656 204.320312 L 204.917969 207.050781 C 208.050781 208.871094 209.945312 212.113281 209.945312 215.753906 C 209.945312 218.484375 208.886719 221.035156 206.992188 222.890625 C 206.375 223.507812 205.683594 224.019531 204.917969 224.457031 L 198.875 227.953125 L 198.875 231.230469 L 206.339844 226.894531 C 207.394531 226.277344 208.378906 225.511719 209.179688 224.675781 C 211.4375 222.308594 212.746094 219.175781 212.746094 215.753906 C 212.785156 211.09375 210.378906 206.941406 206.339844 204.609375 Z M 206.339844 204.609375 " fill-opacity="1" fill-rule="nonzero"/></g><path fill="#000000" d="M 178.699219 217.320312 L 178.699219 239.53125 C 178.300781 239.675781 177.863281 239.824219 177.460938 239.933594 L 177.460938 218.8125 L 175.023438 218.8125 C 174.1875 218.8125 173.492188 218.121094 173.492188 217.28125 L 173.492188 192.8125 C 171.855469 192.886719 170.253906 193.324219 168.796875 194.160156 C 168.03125 194.597656 167.339844 195.144531 166.722656 195.761719 C 167.558594 194.523438 168.6875 193.46875 170.035156 192.667969 C 171.527344 191.832031 173.128906 191.355469 174.730469 191.320312 L 174.730469 215.828125 C 174.730469 216.664062 175.421875 217.355469 176.261719 217.355469 L 178.699219 217.355469 Z M 178.699219 217.320312 " fill-opacity="1" fill-rule="nonzero"/><path fill="#545454" d="M 180.703125 193.140625 L 182.851562 194.378906 L 182.851562 210.582031 Z M 180.703125 193.140625 " fill-opacity="1" fill-rule="nonzero"/><path fill="#545454" d="M 197.671875 202.679688 L 199.128906 203.519531 L 199.128906 214.40625 Z M 197.671875 202.679688 " fill-opacity="1" fill-rule="nonzero"/><g clip-path="url(#9bae630234)"><path fill="#000000" d="M 250.78125 193.777344 C 250.054688 159.558594 221.96875 131.90625 187.5 131.90625 C 153.03125 131.90625 124.945312 159.558594 124.21875 193.777344 C 117.257812 197.78125 112.570312 205.3125 112.570312 213.902344 L 112.570312 219.691406 C 112.570312 232 122.1875 242.085938 134.324219 242.859375 C 134.371094 242.859375 134.371094 242.859375 134.421875 242.859375 C 134.855469 242.90625 135.339844 242.90625 135.820312 242.90625 L 141.285156 242.90625 C 145.828125 242.90625 149.503906 239.238281 149.503906 234.703125 L 149.503906 198.890625 C 149.503906 194.355469 145.828125 190.6875 141.285156 190.6875 L 136.742188 190.6875 C 138.335938 178.816406 144.089844 167.859375 153.03125 159.753906 C 162.457031 151.210938 174.6875 146.480469 187.402344 146.480469 C 200.40625 146.480469 212.78125 151.355469 222.304688 160.234375 C 231.007812 168.34375 236.519531 179.058594 238.113281 190.734375 L 233.714844 190.734375 C 229.171875 190.734375 225.496094 194.402344 225.496094 198.941406 L 225.496094 234.703125 C 225.496094 239.238281 229.171875 242.90625 233.714844 242.90625 L 239.179688 242.90625 C 239.660156 242.90625 240.097656 242.90625 240.578125 242.859375 C 240.628906 242.859375 240.628906 242.859375 240.675781 242.859375 C 252.8125 242.085938 262.429688 232 262.429688 219.691406 L 262.429688 213.902344 C 262.429688 205.3125 257.742188 197.78125 250.78125 193.777344 Z M 117.402344 219.691406 L 117.402344 213.902344 C 117.402344 204.730469 124.171875 197.058594 133.019531 195.707031 C 134.324219 196.191406 135.289062 197.445312 135.289062 198.890625 L 135.289062 234.703125 C 135.289062 236.101562 134.371094 237.40625 133.019531 237.886719 C 124.171875 236.535156 117.402344 228.863281 117.402344 219.691406 Z M 141.285156 195.515625 C 143.171875 195.515625 144.667969 197.011719 144.667969 198.890625 L 144.667969 234.703125 C 144.667969 236.585938 143.171875 238.082031 141.285156 238.082031 L 139.398438 238.082031 C 139.882812 237.066406 140.125 235.910156 140.125 234.703125 L 140.125 198.890625 C 140.125 197.6875 139.882812 196.527344 139.398438 195.515625 Z M 225.640625 156.664062 C 215.25 146.964844 201.664062 141.65625 187.453125 141.65625 C 173.480469 141.65625 160.136719 146.820312 149.792969 156.179688 C 139.738281 165.304688 133.40625 177.65625 131.808594 191.074219 C 130.890625 191.21875 130.019531 191.460938 129.152344 191.703125 C 130.9375 161.054688 156.414062 136.730469 187.5 136.730469 C 218.585938 136.730469 244.0625 161.054688 245.847656 191.652344 C 244.929688 191.363281 244.011719 191.171875 243.046875 191.027344 C 241.5 177.898438 235.40625 165.785156 225.640625 156.664062 Z M 233.714844 238.082031 C 231.828125 238.082031 230.332031 236.585938 230.332031 234.703125 L 230.332031 198.890625 C 230.332031 197.011719 231.828125 195.515625 233.714844 195.515625 L 235.601562 195.515625 C 235.117188 196.527344 234.875 197.6875 234.875 198.890625 L 234.875 234.703125 C 234.875 235.910156 235.117188 237.066406 235.601562 238.082031 Z M 257.597656 219.691406 C 257.597656 228.863281 250.828125 236.535156 241.980469 237.886719 C 240.675781 237.40625 239.710938 236.148438 239.710938 234.703125 L 239.710938 198.890625 C 239.710938 197.589844 240.484375 196.429688 241.644531 195.851562 C 241.738281 195.804688 241.886719 195.753906 241.980469 195.707031 C 250.828125 197.058594 257.597656 204.730469 257.597656 213.902344 Z M 257.597656 219.691406 " fill-opacity="1" fill-rule="nonzero"/></g></svg>