<svg xmlns="http://www.w3.org/2000/svg" xmlns:xlink="http://www.w3.org/1999/xlink" width="500" zoomAndPan="magnify" viewBox="0 0 375 374.999991" height="500" preserveAspectRatio="xMidYMid meet" version="1.0"><defs><clipPath id="e35464a788"><path d="M 146.28125 188 L 228.78125 188 L 228.78125 277.5 L 146.28125 277.5 Z M 146.28125 188 " clip-rule="nonzero"/></clipPath><clipPath id="46a1792424"><path d="M 75 104.109375 L 300 104.109375 L 300 270.609375 L 75 270.609375 Z M 75 104.109375 " clip-rule="nonzero"/></clipPath></defs><path fill="#000000" d="M 219.453125 244.683594 C 221.234375 242.011719 222.242188 238.867188 222.242188 235.542969 C 222.242188 229.609375 219.15625 224.328125 214.054688 221.359375 L 208.414062 218.097656 L 208.414062 214.476562 L 216.070312 218.925781 C 221.175781 221.894531 224.261719 227.175781 224.261719 233.109375 C 224.261719 237.503906 222.539062 241.65625 219.453125 244.683594 Z M 219.453125 244.683594 " fill-opacity="1" fill-rule="nonzero"/><path fill="#000000" d="M 199.15625 235.601562 L 199.15625 257.027344 L 197.140625 258.214844 L 197.140625 238.09375 L 193.164062 238.09375 C 191.796875 238.09375 190.671875 236.96875 190.671875 235.601562 L 190.671875 207.828125 L 182.421875 203.082031 L 182.421875 199.460938 L 192.75 205.398438 L 192.75 233.109375 C 192.75 234.476562 193.875 235.601562 195.242188 235.601562 Z M 199.15625 235.601562 " fill-opacity="1" fill-rule="nonzero"/><g clip-path="url(#e35464a788)"><path fill="#000000" d="M 173.105469 271.804688 C 172.453125 272.039062 171.738281 272.277344 171.085938 272.457031 C 167.050781 273.464844 162.777344 272.871094 159.039062 270.734375 C 153.9375 267.769531 150.851562 262.484375 150.851562 256.550781 L 150.851562 209.550781 C 150.851562 206.167969 151.800781 203.023438 153.582031 200.410156 C 154.945312 198.394531 156.785156 196.671875 158.980469 195.367188 C 161.414062 194.003906 163.964844 193.230469 166.636719 193.171875 L 166.636719 233.109375 C 166.636719 234.476562 167.765625 235.601562 169.128906 235.601562 L 173.105469 235.601562 Z M 218.207031 214.890625 L 177.675781 191.390625 C 171.148438 187.59375 163.3125 187.59375 156.726562 191.390625 C 153.996094 192.992188 151.742188 195.070312 150.019531 197.503906 C 147.585938 200.945312 146.28125 205.101562 146.28125 209.550781 L 146.28125 256.492188 C 146.28125 264.089844 150.199219 270.914062 156.726562 274.652344 C 159.988281 276.550781 163.609375 277.5 167.230469 277.5 C 168.773438 277.5 170.316406 277.324219 171.800781 276.964844 C 173.046875 276.667969 174.707031 276.3125 175.835938 275.601562 C 175.835938 275.601562 175.894531 275.601562 175.953125 275.542969 L 175.953125 235.484375 L 179.929688 235.484375 C 180.046875 235.484375 180.226562 235.484375 180.34375 235.425781 C 181.472656 235.1875 182.363281 234.179688 182.363281 232.992188 L 182.363281 199.402344 L 192.628906 205.335938 L 192.628906 233.050781 C 192.628906 234.417969 193.757812 235.542969 195.121094 235.542969 L 199.097656 235.542969 L 199.097656 256.96875 L 197.082031 258.152344 L 180.109375 267.945312 L 180.109375 273.285156 L 201.886719 260.707031 L 201.886719 255.363281 L 201.828125 255.363281 L 201.828125 235.542969 L 205.804688 235.542969 C 205.921875 235.542969 206.101562 235.542969 206.21875 235.484375 C 207.347656 235.246094 208.238281 234.238281 208.238281 233.050781 L 208.238281 214.417969 L 215.894531 218.867188 C 220.996094 221.835938 224.082031 227.117188 224.082031 233.050781 C 224.082031 237.503906 222.359375 241.65625 219.273438 244.683594 C 218.265625 245.691406 217.140625 246.523438 215.894531 247.234375 L 206.042969 252.933594 L 206.042969 258.273438 L 218.207031 251.210938 C 219.929688 250.203125 221.53125 248.957031 222.835938 247.589844 C 226.515625 243.734375 228.652344 238.628906 228.652344 233.050781 C 228.710938 225.457031 224.792969 218.691406 218.207031 214.890625 Z M 218.207031 214.890625 " fill-opacity="1" fill-rule="nonzero"/></g><path fill="#000000" d="M 173.164062 235.601562 L 173.164062 271.804688 C 172.511719 272.039062 171.800781 272.277344 171.148438 272.457031 L 171.148438 238.035156 L 167.171875 238.035156 C 165.804688 238.035156 164.679688 236.910156 164.679688 235.542969 L 164.679688 195.664062 C 162.007812 195.78125 159.398438 196.496094 157.023438 197.859375 C 155.777344 198.570312 154.648438 199.460938 153.640625 200.472656 C 155.003906 198.453125 156.84375 196.730469 159.039062 195.425781 C 161.472656 194.0625 164.085938 193.289062 166.695312 193.230469 L 166.695312 233.171875 C 166.695312 234.535156 167.824219 235.664062 169.1875 235.664062 L 173.164062 235.664062 Z M 173.164062 235.601562 " fill-opacity="1" fill-rule="nonzero"/><path fill="#545454" d="M 176.429688 196.199219 L 179.929688 198.214844 L 179.929688 224.625 Z M 176.429688 196.199219 " fill-opacity="1" fill-rule="nonzero"/><path fill="#545454" d="M 204.082031 211.746094 L 206.457031 213.113281 L 206.457031 230.855469 Z M 204.082031 211.746094 " fill-opacity="1" fill-rule="nonzero"/><g clip-path="url(#46a1792424)"><path fill="#000000" d="M 282.421875 196.914062 C 281.332031 145.589844 239.203125 104.109375 187.5 104.109375 C 135.796875 104.109375 93.667969 145.589844 92.578125 196.914062 C 82.136719 202.921875 75.105469 214.214844 75.105469 227.101562 L 75.105469 235.789062 C 75.105469 254.25 89.535156 269.378906 107.734375 270.535156 C 107.808594 270.535156 107.808594 270.535156 107.878906 270.535156 C 108.53125 270.609375 109.257812 270.609375 109.984375 270.609375 L 118.175781 270.609375 C 124.992188 270.609375 130.503906 265.109375 130.503906 258.304688 L 130.503906 204.589844 C 130.503906 197.785156 124.992188 192.28125 118.175781 192.28125 L 111.359375 192.28125 C 113.753906 174.472656 122.382812 158.039062 135.796875 145.878906 C 149.9375 133.066406 168.285156 125.972656 187.355469 125.972656 C 206.859375 125.972656 225.425781 133.28125 239.710938 146.601562 C 252.761719 158.765625 261.027344 174.835938 263.421875 192.355469 L 256.824219 192.355469 C 250.007812 192.355469 244.496094 197.855469 244.496094 204.660156 L 244.496094 258.304688 C 244.496094 265.109375 250.007812 270.609375 256.824219 270.609375 L 265.015625 270.609375 C 265.742188 270.609375 266.394531 270.609375 267.121094 270.535156 C 267.191406 270.535156 267.191406 270.535156 267.265625 270.535156 C 285.464844 269.378906 299.894531 254.25 299.894531 235.789062 L 299.894531 227.101562 C 299.894531 214.214844 292.863281 202.921875 282.421875 196.914062 Z M 82.355469 235.789062 L 82.355469 227.101562 C 82.355469 213.347656 92.507812 201.835938 105.777344 199.8125 C 107.734375 200.535156 109.183594 202.417969 109.183594 204.589844 L 109.183594 258.304688 C 109.183594 260.402344 107.808594 262.355469 105.777344 263.082031 C 92.507812 261.054688 82.355469 249.542969 82.355469 235.789062 Z M 118.175781 199.519531 C 121.003906 199.519531 123.253906 201.765625 123.253906 204.589844 L 123.253906 258.304688 C 123.253906 261.125 121.003906 263.371094 118.175781 263.371094 L 115.347656 263.371094 C 116.074219 261.851562 116.4375 260.113281 116.4375 258.304688 L 116.4375 204.589844 C 116.4375 202.777344 116.074219 201.042969 115.347656 199.519531 Z M 244.714844 141.246094 C 229.121094 126.695312 208.746094 118.730469 187.425781 118.730469 C 166.472656 118.730469 146.457031 126.476562 130.9375 140.523438 C 115.855469 154.203125 106.355469 172.734375 103.964844 192.859375 C 102.585938 193.078125 101.28125 193.441406 99.976562 193.800781 C 102.660156 147.832031 140.875 111.347656 187.5 111.347656 C 234.125 111.347656 272.339844 147.832031 275.023438 193.730469 C 273.644531 193.296875 272.269531 193.007812 270.816406 192.789062 C 268.496094 173.097656 259.359375 154.929688 244.714844 141.246094 Z M 256.824219 263.371094 C 253.996094 263.371094 251.746094 261.125 251.746094 258.304688 L 251.746094 204.589844 C 251.746094 201.765625 253.996094 199.519531 256.824219 199.519531 L 259.652344 199.519531 C 258.925781 201.042969 258.5625 202.777344 258.5625 204.589844 L 258.5625 258.304688 C 258.5625 260.113281 258.925781 261.851562 259.652344 263.371094 Z M 292.644531 235.789062 C 292.644531 249.542969 282.492188 261.054688 269.222656 263.082031 C 267.265625 262.355469 265.816406 260.472656 265.816406 258.304688 L 265.816406 204.589844 C 265.816406 202.632812 266.976562 200.898438 268.714844 200.027344 C 268.859375 199.957031 269.078125 199.882812 269.222656 199.8125 C 282.492188 201.835938 292.644531 213.347656 292.644531 227.101562 Z M 292.644531 235.789062 " fill-opacity="1" fill-rule="nonzero"/></g></svg>