<svg xmlns="http://www.w3.org/2000/svg" xmlns:xlink="http://www.w3.org/1999/xlink" width="820" zoomAndPan="magnify" viewBox="0 0 615 884.999995" height="1180" preserveAspectRatio="xMidYMid meet" version="1.0"><rect x="-61.5" width="738" fill="#ffffff" y="-88.5" height="1061.999994" fill-opacity="1"/><rect x="-61.5" width="738" fill="#ddc3b2" y="-88.5" height="1061.999994" fill-opacity="1"/><path fill="#100f0d" d="M -4.707031 885.484375 C -4.707031 889.609375 1.496094 889.609375 1.496094 885.484375 C 1.496094 883.796875 -4.707031 881.402344 -4.707031 885.484375 " fill-opacity="1" fill-rule="nonzero"/><path fill="#100f0d" d="M -4.707031 877.453125 C -4.707031 881.582031 1.496094 881.582031 1.496094 877.453125 C 1.496094 875.722656 -4.707031 873.328125 -4.707031 877.453125 " fill-opacity="1" fill-rule="nonzero"/><path fill="#100f0d" d="M -4.707031 869.378906 C -4.707031 873.503906 1.496094 873.503906 1.496094 869.378906 C 1.496094 867.695312 -4.707031 865.296875 -4.707031 869.378906 " fill-opacity="1" fill-rule="nonzero"/><path fill="#100f0d" d="M -4.707031 861.351562 C -4.707031 865.476562 1.496094 865.476562 1.496094 861.351562 C 1.496094 859.621094 -4.707031 857.222656 -4.707031 861.351562 " fill-opacity="1" fill-rule="nonzero"/><path fill="#100f0d" d="M 3.578125 885.484375 C 3.578125 889.609375 9.777344 889.609375 9.777344 885.484375 C 9.777344 883.796875 3.578125 881.402344 3.578125 885.484375 " fill-opacity="1" fill-rule="nonzero"/><path fill="#100f0d" d="M 3.578125 877.453125 C 3.578125 881.582031 9.777344 881.582031 9.777344 877.453125 C 9.777344 875.722656 3.578125 873.328125 3.578125 877.453125 " fill-opacity="1" fill-rule="nonzero"/><path fill="#100f0d" d="M 3.578125 869.378906 C 3.578125 873.503906 9.777344 873.503906 9.777344 869.378906 C 9.777344 867.695312 3.578125 865.296875 3.578125 869.378906 " fill-opacity="1" fill-rule="nonzero"/><path fill="#100f0d" d="M 3.578125 861.351562 C 3.578125 865.476562 9.777344 865.476562 9.777344 861.351562 C 9.777344 859.621094 3.578125 857.222656 3.578125 861.351562 " fill-opacity="1" fill-rule="nonzero"/><path fill="#100f0d" d="M 3.578125 853.273438 C 3.578125 857.402344 9.777344 857.402344 9.777344 853.273438 C 9.777344 851.546875 3.578125 849.195312 3.578125 853.273438 " fill-opacity="1" fill-rule="nonzero"/><path fill="#100f0d" d="M 11.90625 885.484375 C 11.90625 889.609375 18.105469 889.609375 18.105469 885.484375 C 18.105469 883.796875 11.90625 881.402344 11.90625 885.484375 " fill-opacity="1" fill-rule="nonzero"/><path fill="#100f0d" d="M 20.1875 885.484375 C 20.1875 889.609375 26.390625 889.609375 26.390625 885.484375 C 26.390625 883.796875 20.1875 881.402344 20.1875 885.484375 " fill-opacity="1" fill-rule="nonzero"/><path fill="#100f0d" d="M 20.1875 877.453125 C 20.1875 881.582031 26.390625 881.582031 26.390625 877.453125 C 26.390625 875.722656 20.1875 873.328125 20.1875 877.453125 " fill-opacity="1" fill-rule="nonzero"/><path fill="#100f0d" d="M 20.1875 869.378906 C 20.1875 873.503906 26.390625 873.503906 26.390625 869.378906 C 26.390625 867.695312 20.1875 865.296875 20.1875 869.378906 " fill-opacity="1" fill-rule="nonzero"/><path fill="#100f0d" d="M 28.515625 885.484375 C 28.515625 889.609375 34.71875 889.609375 34.71875 885.484375 C 34.71875 883.796875 28.515625 881.402344 28.515625 885.484375 " fill-opacity="1" fill-rule="nonzero"/><path fill="#100f0d" d="M 28.515625 877.453125 C 28.515625 881.582031 34.71875 881.582031 34.71875 877.453125 C 34.71875 875.722656 28.515625 873.328125 28.515625 877.453125 " fill-opacity="1" fill-rule="nonzero"/><path fill="#100f0d" d="M 28.515625 869.378906 C 28.515625 873.503906 34.71875 873.503906 34.71875 869.378906 C 34.71875 867.695312 28.515625 865.296875 28.515625 869.378906 " fill-opacity="1" fill-rule="nonzero"/><path fill="#100f0d" d="M 28.515625 861.351562 C 28.515625 865.476562 34.71875 865.476562 34.71875 861.351562 C 34.71875 859.621094 28.515625 857.222656 28.515625 861.351562 " fill-opacity="1" fill-rule="nonzero"/><path fill="#100f0d" d="M 28.515625 853.273438 C 28.515625 857.402344 34.71875 857.402344 34.71875 853.273438 C 34.71875 851.546875 28.515625 849.195312 28.515625 853.273438 " fill-opacity="1" fill-rule="nonzero"/><path fill="#100f0d" d="M 36.800781 885.484375 C 36.800781 889.609375 43 889.609375 43 885.484375 C 43 883.796875 36.800781 881.402344 36.800781 885.484375 " fill-opacity="1" fill-rule="nonzero"/><path fill="#100f0d" d="M 36.800781 877.453125 C 36.800781 881.582031 43 881.582031 43 877.453125 C 43 875.722656 36.800781 873.328125 36.800781 877.453125 " fill-opacity="1" fill-rule="nonzero"/><path fill="#100f0d" d="M 36.800781 869.378906 C 36.800781 873.503906 43 873.503906 43 869.378906 C 43 867.695312 36.800781 865.296875 36.800781 869.378906 " fill-opacity="1" fill-rule="nonzero"/><path fill="#100f0d" d="M 36.800781 861.351562 C 36.800781 865.476562 43 865.476562 43 861.351562 C 43 859.621094 36.800781 857.222656 36.800781 861.351562 " fill-opacity="1" fill-rule="nonzero"/><path fill="#100f0d" d="M 36.800781 853.273438 C 36.800781 857.402344 43 857.402344 43 853.273438 C 43 851.546875 36.800781 849.195312 36.800781 853.273438 " fill-opacity="1" fill-rule="nonzero"/><path fill="#100f0d" d="M 36.800781 845.246094 C 36.800781 849.328125 43 849.328125 43 845.246094 C 43 843.515625 36.800781 841.121094 36.800781 845.246094 " fill-opacity="1" fill-rule="nonzero"/><path fill="#100f0d" d="M 36.800781 837.171875 C 36.800781 841.296875 43 841.296875 43 837.171875 C 43 835.484375 36.800781 833.042969 36.800781 837.171875 " fill-opacity="1" fill-rule="nonzero"/><path fill="#100f0d" d="M 45.128906 885.484375 C 45.128906 889.609375 51.328125 889.609375 51.328125 885.484375 C 51.328125 883.796875 45.128906 881.402344 45.128906 885.484375 " fill-opacity="1" fill-rule="nonzero"/><path fill="#100f0d" d="M 45.128906 877.453125 C 45.128906 881.582031 51.328125 881.582031 51.328125 877.453125 C 51.328125 875.722656 45.128906 873.328125 45.128906 877.453125 " fill-opacity="1" fill-rule="nonzero"/><path fill="#100f0d" d="M 45.128906 869.378906 C 45.128906 873.503906 51.328125 873.503906 51.328125 869.378906 C 51.328125 867.695312 45.128906 865.296875 45.128906 869.378906 " fill-opacity="1" fill-rule="nonzero"/><path fill="#100f0d" d="M 53.457031 885.484375 C 53.457031 889.609375 59.65625 889.609375 59.65625 885.484375 C 59.65625 883.796875 53.457031 881.402344 53.457031 885.484375 " fill-opacity="1" fill-rule="nonzero"/><path fill="#100f0d" d="M 61.738281 885.484375 C 61.738281 889.609375 67.941406 889.609375 67.941406 885.484375 C 67.941406 883.796875 61.738281 881.402344 61.738281 885.484375 " fill-opacity="1" fill-rule="nonzero"/><path fill="#100f0d" d="M 61.738281 877.453125 C 61.738281 881.582031 67.941406 881.582031 67.941406 877.453125 C 67.941406 875.722656 61.738281 873.328125 61.738281 877.453125 " fill-opacity="1" fill-rule="nonzero"/><path fill="#100f0d" d="M 61.738281 869.378906 C 61.738281 873.503906 67.941406 873.503906 67.941406 869.378906 C 67.941406 867.695312 61.738281 865.296875 61.738281 869.378906 " fill-opacity="1" fill-rule="nonzero"/><path fill="#100f0d" d="M 61.738281 861.351562 C 61.738281 865.476562 67.941406 865.476562 67.941406 861.351562 C 67.941406 859.621094 61.738281 857.222656 61.738281 861.351562 " fill-opacity="1" fill-rule="nonzero"/><path fill="#100f0d" d="M 61.738281 853.273438 C 61.738281 857.402344 67.941406 857.402344 67.941406 853.273438 C 67.941406 851.546875 61.738281 849.195312 61.738281 853.273438 " fill-opacity="1" fill-rule="nonzero"/><path fill="#100f0d" d="M 61.738281 845.246094 C 61.738281 849.328125 67.941406 849.328125 67.941406 845.246094 C 67.941406 843.515625 61.738281 841.121094 61.738281 845.246094 " fill-opacity="1" fill-rule="nonzero"/><path fill="#100f0d" d="M 61.738281 837.171875 C 61.738281 841.296875 67.941406 841.296875 67.941406 837.171875 C 67.941406 835.484375 61.738281 833.042969 61.738281 837.171875 " fill-opacity="1" fill-rule="nonzero"/><path fill="#100f0d" d="M 61.738281 829.140625 C 61.738281 833.222656 67.941406 833.265625 67.941406 829.140625 C 67.941406 827.410156 61.738281 825.015625 61.738281 829.140625 " fill-opacity="1" fill-rule="nonzero"/><path fill="#100f0d" d="M 61.738281 821.066406 C 61.738281 825.191406 67.941406 825.191406 67.941406 821.066406 C 67.941406 819.378906 61.738281 816.984375 61.738281 821.066406 " fill-opacity="1" fill-rule="nonzero"/><path fill="#100f0d" d="M 61.738281 813.035156 C 61.738281 817.117188 67.941406 817.160156 67.941406 813.035156 C 67.941406 811.304688 61.738281 808.910156 61.738281 813.035156 " fill-opacity="1" fill-rule="nonzero"/><path fill="#100f0d" d="M 61.738281 804.960938 C 61.738281 809.085938 67.941406 809.085938 67.941406 804.960938 C 67.941406 803.230469 61.738281 800.835938 61.738281 804.960938 " fill-opacity="1" fill-rule="nonzero"/><path fill="#100f0d" d="M 61.738281 796.886719 C 61.738281 801.011719 67.941406 801.011719 67.941406 796.886719 C 67.941406 795.199219 61.738281 792.804688 61.738281 796.886719 " fill-opacity="1" fill-rule="nonzero"/><path fill="#100f0d" d="M 70.066406 885.484375 C 70.066406 889.609375 76.269531 889.609375 76.269531 885.484375 C 76.269531 883.796875 70.066406 881.402344 70.066406 885.484375 " fill-opacity="1" fill-rule="nonzero"/><path fill="#100f0d" d="M 70.066406 877.453125 C 70.066406 881.582031 76.269531 881.582031 76.269531 877.453125 C 76.269531 875.722656 70.066406 873.328125 70.066406 877.453125 " fill-opacity="1" fill-rule="nonzero"/><path fill="#100f0d" d="M 70.066406 869.378906 C 70.066406 873.503906 76.269531 873.503906 76.269531 869.378906 C 76.269531 867.695312 70.066406 865.296875 70.066406 869.378906 " fill-opacity="1" fill-rule="nonzero"/><path fill="#100f0d" d="M 70.066406 861.351562 C 70.066406 865.476562 76.269531 865.476562 76.269531 861.351562 C 76.269531 859.621094 70.066406 857.222656 70.066406 861.351562 " fill-opacity="1" fill-rule="nonzero"/><path fill="#100f0d" d="M 78.351562 885.484375 C 78.351562 889.609375 84.550781 889.609375 84.550781 885.484375 C 84.550781 883.796875 78.351562 881.402344 78.351562 885.484375 " fill-opacity="1" fill-rule="nonzero"/><path fill="#100f0d" d="M 78.351562 877.453125 C 78.351562 881.582031 84.550781 881.582031 84.550781 877.453125 C 84.550781 875.722656 78.351562 873.328125 78.351562 877.453125 " fill-opacity="1" fill-rule="nonzero"/><path fill="#100f0d" d="M 78.351562 869.378906 C 78.351562 873.503906 84.550781 873.503906 84.550781 869.378906 C 84.550781 867.695312 78.351562 865.296875 78.351562 869.378906 " fill-opacity="1" fill-rule="nonzero"/><path fill="#100f0d" d="M 84.550781 861.351562 C 84.550781 857.222656 78.351562 857.222656 78.351562 861.351562 C 78.351562 863.078125 84.550781 865.476562 84.550781 861.351562 " fill-opacity="1" fill-rule="nonzero"/><path fill="#100f0d" d="M 84.550781 853.273438 C 84.550781 849.195312 78.351562 849.195312 78.351562 853.273438 C 78.351562 855.003906 84.550781 857.402344 84.550781 853.273438 " fill-opacity="1" fill-rule="nonzero"/><path fill="#100f0d" d="M 84.550781 845.246094 C 84.550781 841.121094 78.351562 841.121094 78.351562 845.246094 C 78.351562 846.976562 84.550781 849.328125 84.550781 845.246094 " fill-opacity="1" fill-rule="nonzero"/><path fill="#100f0d" d="M 11.90625 870.488281 C 11.90625 874.570312 18.105469 874.613281 18.105469 870.488281 C 18.105469 868.757812 11.90625 866.363281 11.90625 870.488281 " fill-opacity="1" fill-rule="nonzero"/><path fill="#100f0d" d="M 11.90625 878.207031 C 11.90625 882.335938 18.105469 882.335938 18.105469 878.207031 C 18.105469 876.476562 11.90625 874.082031 11.90625 878.207031 " fill-opacity="1" fill-rule="nonzero"/><path fill="#100f0d" d="M 11.90625 855.449219 C 11.90625 859.574219 18.105469 859.574219 18.105469 855.449219 C 18.105469 853.71875 11.90625 851.324219 11.90625 855.449219 " fill-opacity="1" fill-rule="nonzero"/><path fill="#100f0d" d="M 11.90625 863.167969 C 11.90625 867.292969 18.105469 867.292969 18.105469 863.167969 C 18.105469 861.4375 11.90625 859.085938 11.90625 863.167969 " fill-opacity="1" fill-rule="nonzero"/><path fill="#100f0d" d="M 11.90625 840.410156 C 11.90625 844.535156 18.105469 844.535156 18.105469 840.410156 C 18.105469 838.679688 11.90625 836.328125 11.90625 840.410156 " fill-opacity="1" fill-rule="nonzero"/><path fill="#100f0d" d="M 11.90625 848.171875 C 11.90625 852.253906 18.105469 852.253906 18.105469 848.171875 C 18.105469 846.441406 11.90625 844.046875 11.90625 848.171875 " fill-opacity="1" fill-rule="nonzero"/><path fill="#100f0d" d="M 11.90625 825.371094 C 11.90625 829.496094 18.105469 829.496094 18.105469 825.371094 C 18.105469 823.683594 11.90625 821.289062 11.90625 825.371094 " fill-opacity="1" fill-rule="nonzero"/><path fill="#100f0d" d="M 11.90625 833.132812 C 11.90625 837.214844 18.105469 837.214844 18.105469 833.132812 C 18.105469 831.402344 11.90625 829.007812 11.90625 833.132812 " fill-opacity="1" fill-rule="nonzero"/><path fill="#100f0d" d="M 11.90625 810.375 C 11.90625 814.457031 18.105469 814.457031 18.105469 810.375 C 18.105469 808.644531 11.90625 806.25 11.90625 810.375 " fill-opacity="1" fill-rule="nonzero"/><path fill="#100f0d" d="M 11.90625 818.09375 C 11.90625 822.21875 18.105469 822.21875 18.105469 818.09375 C 18.105469 816.363281 11.90625 813.96875 11.90625 818.09375 " fill-opacity="1" fill-rule="nonzero"/><path fill="#100f0d" d="M 11.90625 795.335938 C 11.90625 799.460938 18.105469 799.460938 18.105469 795.335938 C 18.105469 793.605469 11.90625 791.207031 11.90625 795.335938 " fill-opacity="1" fill-rule="nonzero"/><path fill="#100f0d" d="M 11.90625 803.054688 C 11.90625 807.179688 18.105469 807.179688 18.105469 803.054688 C 18.105469 801.367188 11.90625 798.929688 11.90625 803.054688 " fill-opacity="1" fill-rule="nonzero"/><path fill="#100f0d" d="M 11.90625 780.292969 C 11.90625 784.421875 18.105469 784.421875 18.105469 780.292969 C 18.105469 778.609375 11.90625 776.167969 11.90625 780.292969 " fill-opacity="1" fill-rule="nonzero"/><path fill="#100f0d" d="M 11.90625 788.058594 C 11.90625 792.140625 18.105469 792.140625 18.105469 788.058594 C 18.105469 786.328125 11.90625 783.933594 11.90625 788.058594 " fill-opacity="1" fill-rule="nonzero"/><path fill="#100f0d" d="M 84.550781 885.484375 C 84.550781 889.609375 90.796875 889.609375 90.796875 885.484375 C 90.796875 883.796875 84.550781 881.402344 84.550781 885.484375 " fill-opacity="1" fill-rule="nonzero"/><path fill="#100f0d" d="M 84.550781 877.453125 C 84.550781 881.582031 90.796875 881.582031 90.796875 877.453125 C 90.796875 875.722656 84.550781 873.328125 84.550781 877.453125 " fill-opacity="1" fill-rule="nonzero"/><path fill="#100f0d" d="M 84.550781 869.378906 C 84.550781 873.503906 90.796875 873.503906 90.796875 869.378906 C 90.796875 867.695312 84.550781 865.296875 84.550781 869.378906 " fill-opacity="1" fill-rule="nonzero"/><path fill="#100f0d" d="M 92.878906 885.484375 C 92.878906 889.609375 99.082031 889.609375 99.082031 885.484375 C 99.082031 883.796875 92.878906 881.402344 92.878906 885.484375 " fill-opacity="1" fill-rule="nonzero"/><path fill="#100f0d" d="M 92.878906 877.453125 C 92.878906 881.582031 99.082031 881.582031 99.082031 877.453125 C 99.082031 875.722656 92.878906 873.328125 92.878906 877.453125 " fill-opacity="1" fill-rule="nonzero"/><path fill="#100f0d" d="M 101.164062 885.484375 C 101.164062 889.609375 107.410156 889.609375 107.410156 885.484375 C 107.410156 883.796875 101.164062 881.402344 101.164062 885.484375 " fill-opacity="1" fill-rule="nonzero"/><path fill="#100f0d" d="M 101.164062 877.453125 C 101.164062 881.582031 107.410156 881.582031 107.410156 877.453125 C 107.410156 875.722656 101.164062 873.328125 101.164062 877.453125 " fill-opacity="1" fill-rule="nonzero"/><path fill="#100f0d" d="M 101.164062 869.378906 C 101.164062 873.503906 107.410156 873.503906 107.410156 869.378906 C 107.410156 867.695312 101.164062 865.296875 101.164062 869.378906 " fill-opacity="1" fill-rule="nonzero"/><path fill="#100f0d" d="M 101.164062 861.351562 C 101.164062 865.476562 107.410156 865.476562 107.410156 861.351562 C 107.410156 859.621094 101.164062 857.222656 101.164062 861.351562 " fill-opacity="1" fill-rule="nonzero"/><path fill="#100f0d" d="M 101.164062 853.273438 C 101.164062 857.402344 107.410156 857.402344 107.410156 853.273438 C 107.410156 851.546875 101.164062 849.195312 101.164062 853.273438 " fill-opacity="1" fill-rule="nonzero"/><path fill="#100f0d" d="M 101.164062 845.246094 C 101.164062 849.328125 107.410156 849.328125 107.410156 845.246094 C 107.410156 843.515625 101.164062 841.121094 101.164062 845.246094 " fill-opacity="1" fill-rule="nonzero"/><path fill="#100f0d" d="M 109.492188 885.484375 C 109.492188 889.609375 115.691406 889.609375 115.691406 885.484375 C 115.691406 883.796875 109.492188 881.402344 109.492188 885.484375 " fill-opacity="1" fill-rule="nonzero"/><path fill="#100f0d" d="M 109.492188 877.453125 C 109.492188 881.582031 115.691406 881.582031 115.691406 877.453125 C 115.691406 875.722656 109.492188 873.328125 109.492188 877.453125 " fill-opacity="1" fill-rule="nonzero"/><path fill="#100f0d" d="M 109.492188 869.378906 C 109.492188 873.503906 115.691406 873.503906 115.691406 869.378906 C 115.691406 867.695312 109.492188 865.296875 109.492188 869.378906 " fill-opacity="1" fill-rule="nonzero"/><path fill="#100f0d" d="M 117.820312 885.484375 C 117.820312 889.609375 124.019531 889.609375 124.019531 885.484375 C 124.019531 883.796875 117.820312 881.402344 117.820312 885.484375 " fill-opacity="1" fill-rule="nonzero"/><path fill="#100f0d" d="M 117.820312 877.453125 C 117.820312 881.582031 124.019531 881.582031 124.019531 877.453125 C 124.019531 875.722656 117.820312 873.328125 117.820312 877.453125 " fill-opacity="1" fill-rule="nonzero"/><path fill="#100f0d" d="M 117.820312 869.378906 C 117.820312 873.503906 124.019531 873.503906 124.019531 869.378906 C 124.019531 867.695312 117.820312 865.296875 117.820312 869.378906 " fill-opacity="1" fill-rule="nonzero"/><path fill="#100f0d" d="M 117.820312 861.351562 C 117.820312 865.476562 124.019531 865.476562 124.019531 861.351562 C 124.019531 859.621094 117.820312 857.222656 117.820312 861.351562 " fill-opacity="1" fill-rule="nonzero"/><path fill="#100f0d" d="M 117.820312 853.273438 C 117.820312 857.402344 124.019531 857.402344 124.019531 853.273438 C 124.019531 851.546875 117.820312 849.195312 117.820312 853.273438 " fill-opacity="1" fill-rule="nonzero"/><path fill="#100f0d" d="M 117.820312 845.246094 C 117.820312 849.328125 124.019531 849.328125 124.019531 845.246094 C 124.019531 843.515625 117.820312 841.121094 117.820312 845.246094 " fill-opacity="1" fill-rule="nonzero"/><path fill="#100f0d" d="M 117.820312 837.171875 C 117.820312 841.296875 124.019531 841.296875 124.019531 837.171875 C 124.019531 835.484375 117.820312 833.042969 117.820312 837.171875 " fill-opacity="1" fill-rule="nonzero"/><path fill="#100f0d" d="M 126.101562 885.484375 C 126.101562 889.609375 132.304688 889.609375 132.304688 885.484375 C 132.304688 883.796875 126.101562 881.402344 126.101562 885.484375 " fill-opacity="1" fill-rule="nonzero"/><path fill="#100f0d" d="M 126.101562 877.453125 C 126.101562 881.582031 132.304688 881.582031 132.304688 877.453125 C 132.304688 875.722656 126.101562 873.328125 126.101562 877.453125 " fill-opacity="1" fill-rule="nonzero"/><path fill="#100f0d" d="M 134.429688 885.484375 C 134.429688 889.609375 140.632812 889.609375 140.632812 885.484375 C 140.632812 883.796875 134.429688 881.402344 134.429688 885.484375 " fill-opacity="1" fill-rule="nonzero"/><path fill="#100f0d" d="M 134.429688 877.453125 C 134.429688 881.582031 140.632812 881.582031 140.632812 877.453125 C 140.632812 875.722656 134.429688 873.328125 134.429688 877.453125 " fill-opacity="1" fill-rule="nonzero"/><path fill="#100f0d" d="M 134.429688 869.378906 C 134.429688 873.503906 140.632812 873.503906 140.632812 869.378906 C 140.632812 867.695312 134.429688 865.296875 134.429688 869.378906 " fill-opacity="1" fill-rule="nonzero"/><path fill="#100f0d" d="M 134.429688 861.351562 C 134.429688 865.476562 140.632812 865.476562 140.632812 861.351562 C 140.632812 859.621094 134.429688 857.222656 134.429688 861.351562 " fill-opacity="1" fill-rule="nonzero"/><path fill="#100f0d" d="M 142.714844 885.484375 C 142.714844 889.609375 148.960938 889.609375 148.960938 885.484375 C 148.960938 883.796875 142.714844 881.402344 142.714844 885.484375 " fill-opacity="1" fill-rule="nonzero"/><path fill="#100f0d" d="M 142.714844 877.453125 C 142.714844 881.582031 148.960938 881.582031 148.960938 877.453125 C 148.960938 875.722656 142.714844 873.328125 142.714844 877.453125 " fill-opacity="1" fill-rule="nonzero"/><path fill="#100f0d" d="M 142.714844 869.378906 C 142.714844 873.503906 148.960938 873.503906 148.960938 869.378906 C 148.960938 867.695312 142.714844 865.296875 142.714844 869.378906 " fill-opacity="1" fill-rule="nonzero"/><path fill="#100f0d" d="M 142.714844 861.351562 C 142.714844 865.476562 148.960938 865.476562 148.960938 861.351562 C 148.960938 859.621094 142.714844 857.222656 142.714844 861.351562 " fill-opacity="1" fill-rule="nonzero"/><path fill="#100f0d" d="M 142.714844 853.273438 C 142.714844 857.402344 148.960938 857.402344 148.960938 853.273438 C 148.960938 851.546875 142.714844 849.195312 142.714844 853.273438 " fill-opacity="1" fill-rule="nonzero"/><path fill="#100f0d" d="M 142.714844 845.246094 C 142.714844 849.328125 148.960938 849.328125 148.960938 845.246094 C 148.960938 843.515625 142.714844 841.121094 142.714844 845.246094 " fill-opacity="1" fill-rule="nonzero"/><path fill="#100f0d" d="M 142.714844 837.171875 C 142.714844 841.296875 148.960938 841.296875 148.960938 837.171875 C 148.960938 835.484375 142.714844 833.042969 142.714844 837.171875 " fill-opacity="1" fill-rule="nonzero"/><path fill="#100f0d" d="M 142.714844 829.140625 C 142.714844 833.222656 148.960938 833.265625 148.960938 829.140625 C 148.960938 827.410156 142.714844 825.015625 142.714844 829.140625 " fill-opacity="1" fill-rule="nonzero"/><path fill="#100f0d" d="M 151.042969 885.484375 C 151.042969 889.609375 157.242188 889.609375 157.242188 885.484375 C 157.242188 883.796875 151.042969 881.402344 151.042969 885.484375 " fill-opacity="1" fill-rule="nonzero"/><path fill="#100f0d" d="M 151.042969 877.453125 C 151.042969 881.582031 157.242188 881.582031 157.242188 877.453125 C 157.242188 875.722656 151.042969 873.328125 151.042969 877.453125 " fill-opacity="1" fill-rule="nonzero"/><path fill="#100f0d" d="M 151.042969 869.378906 C 151.042969 873.503906 157.242188 873.503906 157.242188 869.378906 C 157.242188 867.695312 151.042969 865.296875 151.042969 869.378906 " fill-opacity="1" fill-rule="nonzero"/><path fill="#100f0d" d="M 151.042969 861.351562 C 151.042969 865.476562 157.242188 865.476562 157.242188 861.351562 C 157.242188 859.621094 151.042969 857.222656 151.042969 861.351562 " fill-opacity="1" fill-rule="nonzero"/><path fill="#100f0d" d="M 151.042969 853.273438 C 151.042969 857.402344 157.242188 857.402344 157.242188 853.273438 C 157.242188 851.546875 151.042969 849.195312 151.042969 853.273438 " fill-opacity="1" fill-rule="nonzero"/><path fill="#100f0d" d="M 151.042969 845.246094 C 151.042969 849.328125 157.242188 849.328125 157.242188 845.246094 C 157.242188 843.515625 151.042969 841.121094 151.042969 845.246094 " fill-opacity="1" fill-rule="nonzero"/><path fill="#100f0d" d="M 151.042969 837.171875 C 151.042969 841.296875 157.242188 841.296875 157.242188 837.171875 C 157.242188 835.484375 151.042969 833.042969 151.042969 837.171875 " fill-opacity="1" fill-rule="nonzero"/><path fill="#100f0d" d="M 151.042969 829.140625 C 151.042969 833.222656 157.242188 833.265625 157.242188 829.140625 C 157.242188 827.410156 151.042969 825.015625 151.042969 829.140625 " fill-opacity="1" fill-rule="nonzero"/><path fill="#100f0d" d="M 151.042969 821.066406 C 151.042969 825.191406 157.242188 825.191406 157.242188 821.066406 C 157.242188 819.378906 151.042969 816.984375 151.042969 821.066406 " fill-opacity="1" fill-rule="nonzero"/><path fill="#100f0d" d="M 159.324219 885.484375 C 159.324219 889.609375 165.570312 889.609375 165.570312 885.484375 C 165.570312 883.796875 159.324219 881.402344 159.324219 885.484375 " fill-opacity="1" fill-rule="nonzero"/><path fill="#100f0d" d="M 159.324219 877.453125 C 159.324219 881.582031 165.570312 881.582031 165.570312 877.453125 C 165.570312 875.722656 159.324219 873.328125 159.324219 877.453125 " fill-opacity="1" fill-rule="nonzero"/><path fill="#100f0d" d="M 167.652344 885.484375 C 167.652344 889.609375 173.855469 889.609375 173.855469 885.484375 C 173.855469 883.796875 167.652344 881.402344 167.652344 885.484375 " fill-opacity="1" fill-rule="nonzero"/><path fill="#100f0d" d="M 167.652344 877.453125 C 167.652344 881.582031 173.855469 881.582031 173.855469 877.453125 C 173.855469 875.722656 167.652344 873.328125 167.652344 877.453125 " fill-opacity="1" fill-rule="nonzero"/><path fill="#100f0d" d="M 167.652344 869.378906 C 167.652344 873.503906 173.855469 873.503906 173.855469 869.378906 C 173.855469 867.695312 167.652344 865.296875 167.652344 869.378906 " fill-opacity="1" fill-rule="nonzero"/><path fill="#100f0d" d="M 167.652344 861.351562 C 167.652344 865.476562 173.855469 865.476562 173.855469 861.351562 C 173.855469 859.621094 167.652344 857.222656 167.652344 861.351562 " fill-opacity="1" fill-rule="nonzero"/><path fill="#100f0d" d="M 167.652344 853.273438 C 167.652344 857.402344 173.855469 857.402344 173.855469 853.273438 C 173.855469 851.546875 167.652344 849.195312 167.652344 853.273438 " fill-opacity="1" fill-rule="nonzero"/><path fill="#100f0d" d="M 167.652344 845.246094 C 167.652344 849.328125 173.855469 849.328125 173.855469 845.246094 C 173.855469 843.515625 167.652344 841.121094 167.652344 845.246094 " fill-opacity="1" fill-rule="nonzero"/><path fill="#100f0d" d="M 175.980469 885.484375 C 175.980469 889.609375 182.183594 889.609375 182.183594 885.484375 C 182.183594 883.796875 175.980469 881.402344 175.980469 885.484375 " fill-opacity="1" fill-rule="nonzero"/><path fill="#100f0d" d="M 175.980469 877.453125 C 175.980469 881.582031 182.183594 881.582031 182.183594 877.453125 C 182.183594 875.722656 175.980469 873.328125 175.980469 877.453125 " fill-opacity="1" fill-rule="nonzero"/><path fill="#100f0d" d="M 184.265625 885.484375 C 184.265625 889.609375 190.464844 889.609375 190.464844 885.484375 C 190.464844 883.796875 184.265625 881.402344 184.265625 885.484375 " fill-opacity="1" fill-rule="nonzero"/><path fill="#100f0d" d="M 184.265625 877.453125 C 184.265625 881.582031 190.464844 881.582031 190.464844 877.453125 C 190.464844 875.722656 184.265625 873.328125 184.265625 877.453125 " fill-opacity="1" fill-rule="nonzero"/><path fill="#100f0d" d="M 184.265625 869.378906 C 184.265625 873.503906 190.464844 873.503906 190.464844 869.378906 C 190.464844 867.695312 184.265625 865.296875 184.265625 869.378906 " fill-opacity="1" fill-rule="nonzero"/><path fill="#100f0d" d="M 184.265625 861.351562 C 184.265625 865.476562 190.464844 865.476562 190.464844 861.351562 C 190.464844 859.621094 184.265625 857.222656 184.265625 861.351562 " fill-opacity="1" fill-rule="nonzero"/><path fill="#100f0d" d="M 192.59375 885.484375 C 192.59375 889.609375 198.792969 889.609375 198.792969 885.484375 C 198.792969 883.796875 192.59375 881.402344 192.59375 885.484375 " fill-opacity="1" fill-rule="nonzero"/><path fill="#100f0d" d="M 192.59375 877.453125 C 192.59375 881.582031 198.792969 881.582031 198.792969 877.453125 C 198.792969 875.722656 192.59375 873.328125 192.59375 877.453125 " fill-opacity="1" fill-rule="nonzero"/><path fill="#100f0d" d="M 192.59375 869.378906 C 192.59375 873.503906 198.792969 873.503906 198.792969 869.378906 C 198.792969 867.695312 192.59375 865.296875 192.59375 869.378906 " fill-opacity="1" fill-rule="nonzero"/><path fill="#100f0d" d="M 192.59375 861.351562 C 192.59375 865.476562 198.792969 865.476562 198.792969 861.351562 C 198.792969 859.621094 192.59375 857.222656 192.59375 861.351562 " fill-opacity="1" fill-rule="nonzero"/><path fill="#100f0d" d="M 192.59375 853.273438 C 192.59375 857.402344 198.792969 857.402344 198.792969 853.273438 C 198.792969 851.546875 192.59375 849.195312 192.59375 853.273438 " fill-opacity="1" fill-rule="nonzero"/><path fill="#100f0d" d="M 200.875 885.484375 C 200.875 889.609375 207.121094 889.609375 207.121094 885.484375 C 207.121094 883.796875 200.875 881.402344 200.875 885.484375 " fill-opacity="1" fill-rule="nonzero"/><path fill="#100f0d" d="M 209.203125 885.484375 C 209.203125 889.609375 215.40625 889.609375 215.40625 885.484375 C 215.40625 883.796875 209.203125 881.402344 209.203125 885.484375 " fill-opacity="1" fill-rule="nonzero"/><path fill="#100f0d" d="M 209.203125 877.453125 C 209.203125 881.582031 215.40625 881.582031 215.40625 877.453125 C 215.40625 875.722656 209.203125 873.328125 209.203125 877.453125 " fill-opacity="1" fill-rule="nonzero"/><path fill="#100f0d" d="M 209.203125 869.378906 C 209.203125 873.503906 215.40625 873.503906 215.40625 869.378906 C 215.40625 867.695312 209.203125 865.296875 209.203125 869.378906 " fill-opacity="1" fill-rule="nonzero"/><path fill="#100f0d" d="M 217.488281 885.484375 C 217.488281 889.609375 223.734375 889.609375 223.734375 885.484375 C 223.734375 883.796875 217.488281 881.402344 217.488281 885.484375 " fill-opacity="1" fill-rule="nonzero"/><path fill="#100f0d" d="M 217.488281 877.453125 C 217.488281 881.582031 223.734375 881.582031 223.734375 877.453125 C 223.734375 875.722656 217.488281 873.328125 217.488281 877.453125 " fill-opacity="1" fill-rule="nonzero"/><path fill="#100f0d" d="M 217.488281 869.378906 C 217.488281 873.503906 223.734375 873.503906 223.734375 869.378906 C 223.734375 867.695312 217.488281 865.296875 217.488281 869.378906 " fill-opacity="1" fill-rule="nonzero"/><path fill="#100f0d" d="M 217.488281 861.351562 C 217.488281 865.476562 223.734375 865.476562 223.734375 861.351562 C 223.734375 859.621094 217.488281 857.222656 217.488281 861.351562 " fill-opacity="1" fill-rule="nonzero"/><path fill="#100f0d" d="M 217.488281 853.273438 C 217.488281 857.402344 223.734375 857.402344 223.734375 853.273438 C 223.734375 851.546875 217.488281 849.195312 217.488281 853.273438 " fill-opacity="1" fill-rule="nonzero"/><path fill="#100f0d" d="M 225.816406 885.484375 C 225.816406 889.609375 232.015625 889.609375 232.015625 885.484375 C 232.015625 883.796875 225.816406 881.402344 225.816406 885.484375 " fill-opacity="1" fill-rule="nonzero"/><path fill="#100f0d" d="M 225.816406 877.453125 C 225.816406 881.582031 232.015625 881.582031 232.015625 877.453125 C 232.015625 875.722656 225.816406 873.328125 225.816406 877.453125 " fill-opacity="1" fill-rule="nonzero"/><path fill="#100f0d" d="M 225.816406 869.378906 C 225.816406 873.503906 232.015625 873.503906 232.015625 869.378906 C 232.015625 867.695312 225.816406 865.296875 225.816406 869.378906 " fill-opacity="1" fill-rule="nonzero"/><path fill="#100f0d" d="M 225.816406 861.351562 C 225.816406 865.476562 232.015625 865.476562 232.015625 861.351562 C 232.015625 859.621094 225.816406 857.222656 225.816406 861.351562 " fill-opacity="1" fill-rule="nonzero"/><path fill="#100f0d" d="M 225.816406 853.273438 C 225.816406 857.402344 232.015625 857.402344 232.015625 853.273438 C 232.015625 851.546875 225.816406 849.195312 225.816406 853.273438 " fill-opacity="1" fill-rule="nonzero"/><path fill="#100f0d" d="M 225.816406 845.246094 C 225.816406 849.328125 232.015625 849.328125 232.015625 845.246094 C 232.015625 843.515625 225.816406 841.121094 225.816406 845.246094 " fill-opacity="1" fill-rule="nonzero"/><path fill="#100f0d" d="M 225.816406 837.171875 C 225.816406 841.296875 232.015625 841.296875 232.015625 837.171875 C 232.015625 835.484375 225.816406 833.042969 225.816406 837.171875 " fill-opacity="1" fill-rule="nonzero"/><path fill="#100f0d" d="M 234.144531 885.484375 C 234.144531 889.609375 240.34375 889.609375 240.34375 885.484375 C 240.34375 883.796875 234.144531 881.402344 234.144531 885.484375 " fill-opacity="1" fill-rule="nonzero"/><path fill="#100f0d" d="M 234.144531 877.453125 C 234.144531 881.582031 240.34375 881.582031 240.34375 877.453125 C 240.34375 875.722656 234.144531 873.328125 234.144531 877.453125 " fill-opacity="1" fill-rule="nonzero"/><path fill="#100f0d" d="M 234.144531 869.378906 C 234.144531 873.503906 240.34375 873.503906 240.34375 869.378906 C 240.34375 867.695312 234.144531 865.296875 234.144531 869.378906 " fill-opacity="1" fill-rule="nonzero"/><path fill="#100f0d" d="M 242.425781 885.484375 C 242.425781 889.609375 248.628906 889.609375 248.628906 885.484375 C 248.628906 883.796875 242.425781 881.402344 242.425781 885.484375 " fill-opacity="1" fill-rule="nonzero"/><path fill="#100f0d" d="M 250.753906 885.484375 C 250.753906 889.609375 256.957031 889.609375 256.957031 885.484375 C 256.957031 883.796875 250.753906 881.402344 250.753906 885.484375 " fill-opacity="1" fill-rule="nonzero"/><path fill="#100f0d" d="M 250.753906 877.453125 C 250.753906 881.582031 256.957031 881.582031 256.957031 877.453125 C 256.957031 875.722656 250.753906 873.328125 250.753906 877.453125 " fill-opacity="1" fill-rule="nonzero"/><path fill="#100f0d" d="M 250.753906 869.378906 C 250.753906 873.503906 256.957031 873.503906 256.957031 869.378906 C 256.957031 867.695312 250.753906 865.296875 250.753906 869.378906 " fill-opacity="1" fill-rule="nonzero"/><path fill="#100f0d" d="M 259.039062 885.484375 C 259.039062 889.609375 265.238281 889.609375 265.238281 885.484375 C 265.238281 883.796875 259.039062 881.402344 259.039062 885.484375 " fill-opacity="1" fill-rule="nonzero"/><path fill="#100f0d" d="M 259.039062 877.453125 C 259.039062 881.582031 265.238281 881.582031 265.238281 877.453125 C 265.238281 875.722656 259.039062 873.328125 259.039062 877.453125 " fill-opacity="1" fill-rule="nonzero"/><path fill="#100f0d" d="M 259.039062 869.378906 C 259.039062 873.503906 265.238281 873.503906 265.238281 869.378906 C 265.238281 867.695312 259.039062 865.296875 259.039062 869.378906 " fill-opacity="1" fill-rule="nonzero"/><path fill="#100f0d" d="M 259.039062 861.351562 C 259.039062 865.476562 265.238281 865.476562 265.238281 861.351562 C 265.238281 859.621094 259.039062 857.222656 259.039062 861.351562 " fill-opacity="1" fill-rule="nonzero"/><path fill="#100f0d" d="M 267.367188 885.484375 C 267.367188 889.609375 273.566406 889.609375 273.566406 885.484375 C 273.566406 883.796875 267.367188 881.402344 267.367188 885.484375 " fill-opacity="1" fill-rule="nonzero"/><path fill="#100f0d" d="M 267.367188 877.453125 C 267.367188 881.582031 273.566406 881.582031 273.566406 877.453125 C 273.566406 875.722656 267.367188 873.328125 267.367188 877.453125 " fill-opacity="1" fill-rule="nonzero"/><path fill="#100f0d" d="M 267.367188 869.378906 C 267.367188 873.503906 273.566406 873.503906 273.566406 869.378906 C 273.566406 867.695312 267.367188 865.296875 267.367188 869.378906 " fill-opacity="1" fill-rule="nonzero"/><path fill="#100f0d" d="M 273.566406 861.351562 C 273.566406 857.222656 267.367188 857.222656 267.367188 861.351562 C 267.367188 863.078125 273.566406 865.476562 273.566406 861.351562 " fill-opacity="1" fill-rule="nonzero"/><path fill="#100f0d" d="M 273.566406 853.273438 C 273.566406 849.195312 267.367188 849.195312 267.367188 853.273438 C 267.367188 855.003906 273.566406 857.402344 273.566406 853.273438 " fill-opacity="1" fill-rule="nonzero"/><path fill="#100f0d" d="M 273.566406 845.246094 C 273.566406 841.121094 267.367188 841.121094 267.367188 845.246094 C 267.367188 846.976562 273.566406 849.328125 273.566406 845.246094 " fill-opacity="1" fill-rule="nonzero"/><path fill="#100f0d" d="M 192.59375 805.273438 C 192.59375 809.398438 198.792969 809.398438 198.792969 805.273438 C 198.792969 803.585938 192.59375 801.144531 192.59375 805.273438 " fill-opacity="1" fill-rule="nonzero"/><path fill="#100f0d" d="M 192.59375 797.242188 C 192.59375 801.367188 198.792969 801.367188 198.792969 797.242188 C 198.792969 795.511719 192.59375 793.117188 192.59375 797.242188 " fill-opacity="1" fill-rule="nonzero"/><path fill="#100f0d" d="M 192.59375 789.167969 C 192.59375 793.292969 198.792969 793.292969 198.792969 789.167969 C 198.792969 787.4375 192.59375 785.085938 192.59375 789.167969 " fill-opacity="1" fill-rule="nonzero"/><path fill="#100f0d" d="M 192.59375 781.136719 C 192.59375 785.21875 198.792969 785.261719 198.792969 781.136719 C 198.792969 779.40625 192.59375 777.011719 192.59375 781.136719 " fill-opacity="1" fill-rule="nonzero"/><path fill="#100f0d" d="M 192.59375 773.0625 C 192.59375 777.1875 198.792969 777.1875 198.792969 773.0625 C 198.792969 771.332031 192.59375 768.980469 192.59375 773.0625 " fill-opacity="1" fill-rule="nonzero"/><path fill="#100f0d" d="M 192.59375 813.035156 C 192.59375 817.117188 198.792969 817.160156 198.792969 813.035156 C 198.792969 811.304688 192.59375 808.910156 192.59375 813.035156 " fill-opacity="1" fill-rule="nonzero"/><path fill="#100f0d" d="M 192.59375 821.066406 C 192.59375 825.191406 198.792969 825.191406 198.792969 821.066406 C 198.792969 819.378906 192.59375 816.984375 192.59375 821.066406 " fill-opacity="1" fill-rule="nonzero"/><path fill="#100f0d" d="M 192.59375 829.140625 C 192.59375 833.222656 198.792969 833.265625 198.792969 829.140625 C 198.792969 827.410156 192.59375 825.015625 192.59375 829.140625 " fill-opacity="1" fill-rule="nonzero"/><path fill="#100f0d" d="M 192.59375 837.171875 C 192.59375 841.296875 198.792969 841.296875 198.792969 837.171875 C 198.792969 835.484375 192.59375 833.042969 192.59375 837.171875 " fill-opacity="1" fill-rule="nonzero"/><path fill="#100f0d" d="M 192.59375 845.246094 C 192.59375 849.328125 198.792969 849.328125 198.792969 845.246094 C 198.792969 843.515625 192.59375 841.121094 192.59375 845.246094 " fill-opacity="1" fill-rule="nonzero"/><path fill="#100f0d" d="M 273.566406 885.484375 C 273.566406 889.609375 279.769531 889.609375 279.769531 885.484375 C 279.769531 883.796875 273.566406 881.402344 273.566406 885.484375 " fill-opacity="1" fill-rule="nonzero"/><path fill="#100f0d" d="M 273.566406 877.453125 C 273.566406 881.582031 279.769531 881.582031 279.769531 877.453125 C 279.769531 875.722656 273.566406 873.328125 273.566406 877.453125 " fill-opacity="1" fill-rule="nonzero"/><path fill="#100f0d" d="M 273.566406 869.378906 C 273.566406 873.503906 279.769531 873.503906 279.769531 869.378906 C 279.769531 867.695312 273.566406 865.296875 273.566406 869.378906 " fill-opacity="1" fill-rule="nonzero"/><path fill="#100f0d" d="M 281.894531 885.484375 C 281.894531 889.609375 288.097656 889.609375 288.097656 885.484375 C 288.097656 883.796875 281.894531 881.402344 281.894531 885.484375 " fill-opacity="1" fill-rule="nonzero"/><path fill="#100f0d" d="M 281.894531 877.453125 C 281.894531 881.582031 288.097656 881.582031 288.097656 877.453125 C 288.097656 875.722656 281.894531 873.328125 281.894531 877.453125 " fill-opacity="1" fill-rule="nonzero"/><path fill="#100f0d" d="M 290.179688 885.484375 C 290.179688 889.609375 296.378906 889.609375 296.378906 885.484375 C 296.378906 883.796875 290.179688 881.402344 290.179688 885.484375 " fill-opacity="1" fill-rule="nonzero"/><path fill="#100f0d" d="M 290.179688 877.453125 C 290.179688 881.582031 296.378906 881.582031 296.378906 877.453125 C 296.378906 875.722656 290.179688 873.328125 290.179688 877.453125 " fill-opacity="1" fill-rule="nonzero"/><path fill="#100f0d" d="M 290.179688 869.378906 C 290.179688 873.503906 296.378906 873.503906 296.378906 869.378906 C 296.378906 867.695312 290.179688 865.296875 290.179688 869.378906 " fill-opacity="1" fill-rule="nonzero"/><path fill="#100f0d" d="M 290.179688 861.351562 C 290.179688 865.476562 296.378906 865.476562 296.378906 861.351562 C 296.378906 859.621094 290.179688 857.222656 290.179688 861.351562 " fill-opacity="1" fill-rule="nonzero"/><path fill="#100f0d" d="M 290.179688 853.273438 C 290.179688 857.402344 296.378906 857.402344 296.378906 853.273438 C 296.378906 851.546875 290.179688 849.195312 290.179688 853.273438 " fill-opacity="1" fill-rule="nonzero"/><path fill="#100f0d" d="M 290.179688 845.246094 C 290.179688 849.328125 296.378906 849.328125 296.378906 845.246094 C 296.378906 843.515625 290.179688 841.121094 290.179688 845.246094 " fill-opacity="1" fill-rule="nonzero"/><path fill="#100f0d" d="M 298.507812 885.484375 C 298.507812 889.609375 304.707031 889.609375 304.707031 885.484375 C 304.707031 883.796875 298.507812 881.402344 298.507812 885.484375 " fill-opacity="1" fill-rule="nonzero"/><path fill="#100f0d" d="M 298.507812 877.453125 C 298.507812 881.582031 304.707031 881.582031 304.707031 877.453125 C 304.707031 875.722656 298.507812 873.328125 298.507812 877.453125 " fill-opacity="1" fill-rule="nonzero"/><path fill="#100f0d" d="M 298.507812 869.378906 C 298.507812 873.503906 304.707031 873.503906 304.707031 869.378906 C 304.707031 867.695312 298.507812 865.296875 298.507812 869.378906 " fill-opacity="1" fill-rule="nonzero"/><path fill="#100f0d" d="M 306.789062 885.484375 C 306.789062 889.609375 312.992188 889.609375 312.992188 885.484375 C 312.992188 883.796875 306.789062 881.402344 306.789062 885.484375 " fill-opacity="1" fill-rule="nonzero"/><path fill="#100f0d" d="M 306.789062 877.453125 C 306.789062 881.582031 312.992188 881.582031 312.992188 877.453125 C 312.992188 875.722656 306.789062 873.328125 306.789062 877.453125 " fill-opacity="1" fill-rule="nonzero"/><path fill="#100f0d" d="M 306.789062 869.378906 C 306.789062 873.503906 312.992188 873.503906 312.992188 869.378906 C 312.992188 867.695312 306.789062 865.296875 306.789062 869.378906 " fill-opacity="1" fill-rule="nonzero"/><path fill="#100f0d" d="M 306.789062 861.351562 C 306.789062 865.476562 312.992188 865.476562 312.992188 861.351562 C 312.992188 859.621094 306.789062 857.222656 306.789062 861.351562 " fill-opacity="1" fill-rule="nonzero"/><path fill="#100f0d" d="M 306.789062 853.273438 C 306.789062 857.402344 312.992188 857.402344 312.992188 853.273438 C 312.992188 851.546875 306.789062 849.195312 306.789062 853.273438 " fill-opacity="1" fill-rule="nonzero"/><path fill="#100f0d" d="M 306.789062 845.246094 C 306.789062 849.328125 312.992188 849.328125 312.992188 845.246094 C 312.992188 843.515625 306.789062 841.121094 306.789062 845.246094 " fill-opacity="1" fill-rule="nonzero"/><path fill="#100f0d" d="M 306.789062 837.171875 C 306.789062 841.296875 312.992188 841.296875 312.992188 837.171875 C 312.992188 835.484375 306.789062 833.042969 306.789062 837.171875 " fill-opacity="1" fill-rule="nonzero"/><path fill="#100f0d" d="M 315.117188 885.484375 C 315.117188 889.609375 321.320312 889.609375 321.320312 885.484375 C 321.320312 883.796875 315.117188 881.402344 315.117188 885.484375 " fill-opacity="1" fill-rule="nonzero"/><path fill="#100f0d" d="M 315.117188 877.453125 C 315.117188 881.582031 321.320312 881.582031 321.320312 877.453125 C 321.320312 875.722656 315.117188 873.328125 315.117188 877.453125 " fill-opacity="1" fill-rule="nonzero"/><path fill="#100f0d" d="M 323.402344 885.484375 C 323.402344 889.609375 329.648438 889.609375 329.648438 885.484375 C 329.648438 883.796875 323.402344 881.402344 323.402344 885.484375 " fill-opacity="1" fill-rule="nonzero"/><path fill="#100f0d" d="M 323.402344 877.453125 C 323.402344 881.582031 329.648438 881.582031 329.648438 877.453125 C 329.648438 875.722656 323.402344 873.328125 323.402344 877.453125 " fill-opacity="1" fill-rule="nonzero"/><path fill="#100f0d" d="M 323.402344 869.378906 C 323.402344 873.503906 329.648438 873.503906 329.648438 869.378906 C 329.648438 867.695312 323.402344 865.296875 323.402344 869.378906 " fill-opacity="1" fill-rule="nonzero"/><path fill="#100f0d" d="M 323.402344 861.351562 C 323.402344 865.476562 329.648438 865.476562 329.648438 861.351562 C 329.648438 859.621094 323.402344 857.222656 323.402344 861.351562 " fill-opacity="1" fill-rule="nonzero"/><path fill="#100f0d" d="M 331.730469 885.484375 C 331.730469 889.609375 337.929688 889.609375 337.929688 885.484375 C 337.929688 883.796875 331.730469 881.402344 331.730469 885.484375 " fill-opacity="1" fill-rule="nonzero"/><path fill="#100f0d" d="M 331.730469 877.453125 C 331.730469 881.582031 337.929688 881.582031 337.929688 877.453125 C 337.929688 875.722656 331.730469 873.328125 331.730469 877.453125 " fill-opacity="1" fill-rule="nonzero"/><path fill="#100f0d" d="M 331.730469 869.378906 C 331.730469 873.503906 337.929688 873.503906 337.929688 869.378906 C 337.929688 867.695312 331.730469 865.296875 331.730469 869.378906 " fill-opacity="1" fill-rule="nonzero"/><path fill="#100f0d" d="M 331.730469 861.351562 C 331.730469 865.476562 337.929688 865.476562 337.929688 861.351562 C 337.929688 859.621094 331.730469 857.222656 331.730469 861.351562 " fill-opacity="1" fill-rule="nonzero"/><path fill="#100f0d" d="M 331.730469 853.273438 C 331.730469 857.402344 337.929688 857.402344 337.929688 853.273438 C 337.929688 851.546875 331.730469 849.195312 331.730469 853.273438 " fill-opacity="1" fill-rule="nonzero"/><path fill="#100f0d" d="M 331.730469 845.246094 C 331.730469 849.328125 337.929688 849.328125 337.929688 845.246094 C 337.929688 843.515625 331.730469 841.121094 331.730469 845.246094 " fill-opacity="1" fill-rule="nonzero"/><path fill="#100f0d" d="M 331.730469 837.171875 C 331.730469 841.296875 337.929688 841.296875 337.929688 837.171875 C 337.929688 835.484375 331.730469 833.042969 331.730469 837.171875 " fill-opacity="1" fill-rule="nonzero"/><path fill="#100f0d" d="M 331.730469 829.140625 C 331.730469 833.222656 337.929688 833.265625 337.929688 829.140625 C 337.929688 827.410156 331.730469 825.015625 331.730469 829.140625 " fill-opacity="1" fill-rule="nonzero"/><path fill="#100f0d" d="M 340.054688 885.484375 C 340.054688 889.609375 346.257812 889.609375 346.257812 885.484375 C 346.257812 883.796875 340.054688 881.402344 340.054688 885.484375 " fill-opacity="1" fill-rule="nonzero"/><path fill="#100f0d" d="M 340.054688 877.453125 C 340.054688 881.582031 346.257812 881.582031 346.257812 877.453125 C 346.257812 875.722656 340.054688 873.328125 340.054688 877.453125 " fill-opacity="1" fill-rule="nonzero"/><path fill="#100f0d" d="M 340.054688 869.378906 C 340.054688 873.503906 346.257812 873.503906 346.257812 869.378906 C 346.257812 867.695312 340.054688 865.296875 340.054688 869.378906 " fill-opacity="1" fill-rule="nonzero"/><path fill="#100f0d" d="M 340.054688 861.351562 C 340.054688 865.476562 346.257812 865.476562 346.257812 861.351562 C 346.257812 859.621094 340.054688 857.222656 340.054688 861.351562 " fill-opacity="1" fill-rule="nonzero"/><path fill="#100f0d" d="M 340.054688 853.273438 C 340.054688 857.402344 346.257812 857.402344 346.257812 853.273438 C 346.257812 851.546875 340.054688 849.195312 340.054688 853.273438 " fill-opacity="1" fill-rule="nonzero"/><path fill="#100f0d" d="M 340.054688 845.246094 C 340.054688 849.328125 346.257812 849.328125 346.257812 845.246094 C 346.257812 843.515625 340.054688 841.121094 340.054688 845.246094 " fill-opacity="1" fill-rule="nonzero"/><path fill="#100f0d" d="M 340.054688 837.171875 C 340.054688 841.296875 346.257812 841.296875 346.257812 837.171875 C 346.257812 835.484375 340.054688 833.042969 340.054688 837.171875 " fill-opacity="1" fill-rule="nonzero"/><path fill="#100f0d" d="M 340.054688 829.140625 C 340.054688 833.222656 346.257812 833.265625 346.257812 829.140625 C 346.257812 827.410156 340.054688 825.015625 340.054688 829.140625 " fill-opacity="1" fill-rule="nonzero"/><path fill="#100f0d" d="M 340.054688 821.066406 C 340.054688 825.191406 346.257812 825.191406 346.257812 821.066406 C 346.257812 819.378906 340.054688 816.984375 340.054688 821.066406 " fill-opacity="1" fill-rule="nonzero"/><path fill="#100f0d" d="M 348.339844 885.484375 C 348.339844 889.609375 354.542969 889.609375 354.542969 885.484375 C 354.542969 883.796875 348.339844 881.402344 348.339844 885.484375 " fill-opacity="1" fill-rule="nonzero"/><path fill="#100f0d" d="M 348.339844 877.453125 C 348.339844 881.582031 354.542969 881.582031 354.542969 877.453125 C 354.542969 875.722656 348.339844 873.328125 348.339844 877.453125 " fill-opacity="1" fill-rule="nonzero"/><path fill="#100f0d" d="M 356.667969 885.484375 C 356.667969 889.609375 362.871094 889.609375 362.871094 885.484375 C 362.871094 883.796875 356.667969 881.402344 356.667969 885.484375 " fill-opacity="1" fill-rule="nonzero"/><path fill="#100f0d" d="M 356.667969 877.453125 C 356.667969 881.582031 362.871094 881.582031 362.871094 877.453125 C 362.871094 875.722656 356.667969 873.328125 356.667969 877.453125 " fill-opacity="1" fill-rule="nonzero"/><path fill="#100f0d" d="M 356.667969 869.378906 C 356.667969 873.503906 362.871094 873.503906 362.871094 869.378906 C 362.871094 867.695312 356.667969 865.296875 356.667969 869.378906 " fill-opacity="1" fill-rule="nonzero"/><path fill="#100f0d" d="M 356.667969 861.351562 C 356.667969 865.476562 362.871094 865.476562 362.871094 861.351562 C 362.871094 859.621094 356.667969 857.222656 356.667969 861.351562 " fill-opacity="1" fill-rule="nonzero"/><path fill="#100f0d" d="M 356.667969 853.273438 C 356.667969 857.402344 362.871094 857.402344 362.871094 853.273438 C 362.871094 851.546875 356.667969 849.195312 356.667969 853.273438 " fill-opacity="1" fill-rule="nonzero"/><path fill="#100f0d" d="M 356.667969 845.246094 C 356.667969 849.328125 362.871094 849.328125 362.871094 845.246094 C 362.871094 843.515625 356.667969 841.121094 356.667969 845.246094 " fill-opacity="1" fill-rule="nonzero"/><path fill="#100f0d" d="M 364.953125 885.484375 C 364.953125 889.609375 371.152344 889.609375 371.152344 885.484375 C 371.152344 883.796875 364.953125 881.402344 364.953125 885.484375 " fill-opacity="1" fill-rule="nonzero"/><path fill="#100f0d" d="M 364.953125 877.453125 C 364.953125 881.582031 371.152344 881.582031 371.152344 877.453125 C 371.152344 875.722656 364.953125 873.328125 364.953125 877.453125 " fill-opacity="1" fill-rule="nonzero"/><path fill="#100f0d" d="M 373.277344 885.484375 C 373.277344 889.609375 379.480469 889.609375 379.480469 885.484375 C 379.480469 883.796875 373.277344 881.402344 373.277344 885.484375 " fill-opacity="1" fill-rule="nonzero"/><path fill="#100f0d" d="M 373.277344 877.453125 C 373.277344 881.582031 379.480469 881.582031 379.480469 877.453125 C 379.480469 875.722656 373.277344 873.328125 373.277344 877.453125 " fill-opacity="1" fill-rule="nonzero"/><path fill="#100f0d" d="M 373.277344 869.378906 C 373.277344 873.503906 379.480469 873.503906 379.480469 869.378906 C 379.480469 867.695312 373.277344 865.296875 373.277344 869.378906 " fill-opacity="1" fill-rule="nonzero"/><path fill="#100f0d" d="M 373.277344 861.351562 C 373.277344 865.476562 379.480469 865.476562 379.480469 861.351562 C 379.480469 859.621094 373.277344 857.222656 373.277344 861.351562 " fill-opacity="1" fill-rule="nonzero"/><path fill="#100f0d" d="M 381.5625 885.484375 C 381.5625 889.609375 387.808594 889.609375 387.808594 885.484375 C 387.808594 883.796875 381.5625 881.402344 381.5625 885.484375 " fill-opacity="1" fill-rule="nonzero"/><path fill="#100f0d" d="M 381.5625 877.453125 C 381.5625 881.582031 387.808594 881.582031 387.808594 877.453125 C 387.808594 875.722656 381.5625 873.328125 381.5625 877.453125 " fill-opacity="1" fill-rule="nonzero"/><path fill="#100f0d" d="M 381.5625 869.378906 C 381.5625 873.503906 387.808594 873.503906 387.808594 869.378906 C 387.808594 867.695312 381.5625 865.296875 381.5625 869.378906 " fill-opacity="1" fill-rule="nonzero"/><path fill="#100f0d" d="M 381.5625 861.351562 C 381.5625 865.476562 387.808594 865.476562 387.808594 861.351562 C 387.808594 859.621094 381.5625 857.222656 381.5625 861.351562 " fill-opacity="1" fill-rule="nonzero"/><path fill="#100f0d" d="M 373.277344 854.207031 C 373.277344 858.332031 379.480469 858.332031 379.480469 854.207031 C 379.480469 852.476562 373.277344 850.082031 373.277344 854.207031 " fill-opacity="1" fill-rule="nonzero"/><path fill="#100f0d" d="M 373.277344 846.175781 C 373.277344 850.257812 379.480469 850.257812 379.480469 846.175781 C 379.480469 844.445312 373.277344 842.050781 373.277344 846.175781 " fill-opacity="1" fill-rule="nonzero"/><path fill="#100f0d" d="M 381.5625 854.207031 C 381.5625 858.332031 387.808594 858.332031 387.808594 854.207031 C 387.808594 852.476562 381.5625 850.082031 381.5625 854.207031 " fill-opacity="1" fill-rule="nonzero"/><path fill="#100f0d" d="M 381.5625 846.175781 C 381.5625 850.257812 387.808594 850.257812 387.808594 846.175781 C 387.808594 844.445312 381.5625 842.050781 381.5625 846.175781 " fill-opacity="1" fill-rule="nonzero"/><path fill="#100f0d" d="M 373.277344 839.035156 C 373.277344 843.117188 379.480469 843.117188 379.480469 839.035156 C 379.480469 837.304688 373.277344 834.90625 373.277344 839.035156 " fill-opacity="1" fill-rule="nonzero"/><path fill="#100f0d" d="M 373.277344 830.960938 C 373.277344 835.085938 379.480469 835.085938 379.480469 830.960938 C 379.480469 829.273438 373.277344 826.832031 373.277344 830.960938 " fill-opacity="1" fill-rule="nonzero"/><path fill="#100f0d" d="M 381.5625 839.035156 C 381.5625 843.117188 387.808594 843.117188 387.808594 839.035156 C 387.808594 837.304688 381.5625 834.90625 381.5625 839.035156 " fill-opacity="1" fill-rule="nonzero"/><path fill="#100f0d" d="M 381.5625 830.960938 C 381.5625 835.085938 387.808594 835.085938 387.808594 830.960938 C 387.808594 829.273438 381.5625 826.832031 381.5625 830.960938 " fill-opacity="1" fill-rule="nonzero"/><path fill="#100f0d" d="M 373.277344 823.816406 C 373.277344 827.941406 379.480469 827.941406 379.480469 823.816406 C 379.480469 822.132812 373.277344 819.691406 373.277344 823.816406 " fill-opacity="1" fill-rule="nonzero"/><path fill="#100f0d" d="M 373.277344 815.785156 C 373.277344 819.867188 379.480469 819.914062 379.480469 815.785156 C 379.480469 814.054688 373.277344 811.660156 373.277344 815.785156 " fill-opacity="1" fill-rule="nonzero"/><path fill="#100f0d" d="M 381.5625 823.816406 C 381.5625 827.941406 387.808594 827.941406 387.808594 823.816406 C 387.808594 822.132812 381.5625 819.691406 381.5625 823.816406 " fill-opacity="1" fill-rule="nonzero"/><path fill="#100f0d" d="M 381.5625 815.785156 C 381.5625 819.867188 387.808594 819.914062 387.808594 815.785156 C 387.808594 814.054688 381.5625 811.660156 381.5625 815.785156 " fill-opacity="1" fill-rule="nonzero"/><path fill="#100f0d" d="M 373.277344 808.644531 C 373.277344 812.769531 379.480469 812.769531 379.480469 808.644531 C 379.480469 806.914062 373.277344 804.519531 373.277344 808.644531 " fill-opacity="1" fill-rule="nonzero"/><path fill="#100f0d" d="M 373.277344 800.570312 C 373.277344 804.695312 379.480469 804.695312 379.480469 800.570312 C 379.480469 798.882812 373.277344 796.488281 373.277344 800.570312 " fill-opacity="1" fill-rule="nonzero"/><path fill="#100f0d" d="M 381.5625 808.644531 C 381.5625 812.769531 387.808594 812.769531 387.808594 808.644531 C 387.808594 806.914062 381.5625 804.519531 381.5625 808.644531 " fill-opacity="1" fill-rule="nonzero"/><path fill="#100f0d" d="M 381.5625 800.570312 C 381.5625 804.695312 387.808594 804.695312 387.808594 800.570312 C 387.808594 798.882812 381.5625 796.488281 381.5625 800.570312 " fill-opacity="1" fill-rule="nonzero"/><path fill="#100f0d" d="M 389.890625 885.484375 C 389.890625 889.609375 396.09375 889.609375 396.09375 885.484375 C 396.09375 883.796875 389.890625 881.402344 389.890625 885.484375 " fill-opacity="1" fill-rule="nonzero"/><path fill="#100f0d" d="M 398.175781 885.484375 C 398.175781 889.609375 404.421875 889.609375 404.421875 885.484375 C 404.421875 883.796875 398.175781 881.402344 398.175781 885.484375 " fill-opacity="1" fill-rule="nonzero"/><path fill="#100f0d" d="M 398.175781 877.453125 C 398.175781 881.582031 404.421875 881.582031 404.421875 877.453125 C 404.421875 875.722656 398.175781 873.328125 398.175781 877.453125 " fill-opacity="1" fill-rule="nonzero"/><path fill="#100f0d" d="M 398.175781 869.378906 C 398.175781 873.503906 404.421875 873.503906 404.421875 869.378906 C 404.421875 867.695312 398.175781 865.296875 398.175781 869.378906 " fill-opacity="1" fill-rule="nonzero"/><path fill="#100f0d" d="M 406.5 885.484375 C 406.5 889.609375 412.703125 889.609375 412.703125 885.484375 C 412.703125 883.796875 406.5 881.402344 406.5 885.484375 " fill-opacity="1" fill-rule="nonzero"/><path fill="#100f0d" d="M 406.5 877.453125 C 406.5 881.582031 412.703125 881.582031 412.703125 877.453125 C 412.703125 875.722656 406.5 873.328125 406.5 877.453125 " fill-opacity="1" fill-rule="nonzero"/><path fill="#100f0d" d="M 406.5 869.378906 C 406.5 873.503906 412.703125 873.503906 412.703125 869.378906 C 412.703125 867.695312 406.5 865.296875 406.5 869.378906 " fill-opacity="1" fill-rule="nonzero"/><path fill="#100f0d" d="M 406.5 861.351562 C 406.5 865.476562 412.703125 865.476562 412.703125 861.351562 C 412.703125 859.621094 406.5 857.222656 406.5 861.351562 " fill-opacity="1" fill-rule="nonzero"/><path fill="#100f0d" d="M 406.5 853.273438 C 406.5 857.402344 412.703125 857.402344 412.703125 853.273438 C 412.703125 851.546875 406.5 849.195312 406.5 853.273438 " fill-opacity="1" fill-rule="nonzero"/><path fill="#100f0d" d="M 414.828125 885.484375 C 414.828125 889.609375 421.03125 889.609375 421.03125 885.484375 C 421.03125 883.796875 414.828125 881.402344 414.828125 885.484375 " fill-opacity="1" fill-rule="nonzero"/><path fill="#100f0d" d="M 414.828125 877.453125 C 414.828125 881.582031 421.03125 881.582031 421.03125 877.453125 C 421.03125 875.722656 414.828125 873.328125 414.828125 877.453125 " fill-opacity="1" fill-rule="nonzero"/><path fill="#100f0d" d="M 414.828125 869.378906 C 414.828125 873.503906 421.03125 873.503906 421.03125 869.378906 C 421.03125 867.695312 414.828125 865.296875 414.828125 869.378906 " fill-opacity="1" fill-rule="nonzero"/><path fill="#100f0d" d="M 414.828125 861.351562 C 414.828125 865.476562 421.03125 865.476562 421.03125 861.351562 C 421.03125 859.621094 414.828125 857.222656 414.828125 861.351562 " fill-opacity="1" fill-rule="nonzero"/><path fill="#100f0d" d="M 414.828125 853.273438 C 414.828125 857.402344 421.03125 857.402344 421.03125 853.273438 C 421.03125 851.546875 414.828125 849.195312 414.828125 853.273438 " fill-opacity="1" fill-rule="nonzero"/><path fill="#100f0d" d="M 414.828125 845.246094 C 414.828125 849.328125 421.03125 849.328125 421.03125 845.246094 C 421.03125 843.515625 414.828125 841.121094 414.828125 845.246094 " fill-opacity="1" fill-rule="nonzero"/><path fill="#100f0d" d="M 414.828125 837.171875 C 414.828125 841.296875 421.03125 841.296875 421.03125 837.171875 C 421.03125 835.484375 414.828125 833.042969 414.828125 837.171875 " fill-opacity="1" fill-rule="nonzero"/><path fill="#100f0d" d="M 423.113281 885.484375 C 423.113281 889.609375 429.316406 889.609375 429.316406 885.484375 C 429.316406 883.796875 423.113281 881.402344 423.113281 885.484375 " fill-opacity="1" fill-rule="nonzero"/><path fill="#100f0d" d="M 423.113281 877.453125 C 423.113281 881.582031 429.316406 881.582031 429.316406 877.453125 C 429.316406 875.722656 423.113281 873.328125 423.113281 877.453125 " fill-opacity="1" fill-rule="nonzero"/><path fill="#100f0d" d="M 423.113281 869.378906 C 423.113281 873.503906 429.316406 873.503906 429.316406 869.378906 C 429.316406 867.695312 423.113281 865.296875 423.113281 869.378906 " fill-opacity="1" fill-rule="nonzero"/><path fill="#100f0d" d="M 431.441406 885.484375 C 431.441406 889.609375 437.644531 889.609375 437.644531 885.484375 C 437.644531 883.796875 431.441406 881.402344 431.441406 885.484375 " fill-opacity="1" fill-rule="nonzero"/><path fill="#100f0d" d="M 439.722656 885.484375 C 439.722656 889.609375 445.96875 889.609375 445.96875 885.484375 C 445.96875 883.796875 439.722656 881.402344 439.722656 885.484375 " fill-opacity="1" fill-rule="nonzero"/><path fill="#100f0d" d="M 439.722656 877.453125 C 439.722656 881.582031 445.96875 881.582031 445.96875 877.453125 C 445.96875 875.722656 439.722656 873.328125 439.722656 877.453125 " fill-opacity="1" fill-rule="nonzero"/><path fill="#100f0d" d="M 439.722656 869.378906 C 439.722656 873.503906 445.96875 873.503906 445.96875 869.378906 C 445.96875 867.695312 439.722656 865.296875 439.722656 869.378906 " fill-opacity="1" fill-rule="nonzero"/><path fill="#100f0d" d="M 448.050781 885.484375 C 448.050781 889.609375 454.253906 889.609375 454.253906 885.484375 C 454.253906 883.796875 448.050781 881.402344 448.050781 885.484375 " fill-opacity="1" fill-rule="nonzero"/><path fill="#100f0d" d="M 448.050781 877.453125 C 448.050781 881.582031 454.253906 881.582031 454.253906 877.453125 C 454.253906 875.722656 448.050781 873.328125 448.050781 877.453125 " fill-opacity="1" fill-rule="nonzero"/><path fill="#100f0d" d="M 448.050781 869.378906 C 448.050781 873.503906 454.253906 873.503906 454.253906 869.378906 C 454.253906 867.695312 448.050781 865.296875 448.050781 869.378906 " fill-opacity="1" fill-rule="nonzero"/><path fill="#100f0d" d="M 448.050781 861.351562 C 448.050781 865.476562 454.253906 865.476562 454.253906 861.351562 C 454.253906 859.621094 448.050781 857.222656 448.050781 861.351562 " fill-opacity="1" fill-rule="nonzero"/><path fill="#100f0d" d="M 456.335938 885.484375 C 456.335938 889.609375 462.582031 889.609375 462.582031 885.484375 C 462.582031 883.796875 456.335938 881.402344 456.335938 885.484375 " fill-opacity="1" fill-rule="nonzero"/><path fill="#100f0d" d="M 456.335938 877.453125 C 456.335938 881.582031 462.582031 881.582031 462.582031 877.453125 C 462.582031 875.722656 456.335938 873.328125 456.335938 877.453125 " fill-opacity="1" fill-rule="nonzero"/><path fill="#100f0d" d="M 456.335938 869.378906 C 456.335938 873.503906 462.582031 873.503906 462.582031 869.378906 C 462.582031 867.695312 456.335938 865.296875 456.335938 869.378906 " fill-opacity="1" fill-rule="nonzero"/><path fill="#100f0d" d="M 462.582031 861.351562 C 462.582031 857.222656 456.335938 857.222656 456.335938 861.351562 C 456.335938 863.078125 462.582031 865.476562 462.582031 861.351562 " fill-opacity="1" fill-rule="nonzero"/><path fill="#100f0d" d="M 462.582031 853.273438 C 462.582031 849.195312 456.335938 849.195312 456.335938 853.273438 C 456.335938 855.003906 462.582031 857.402344 462.582031 853.273438 " fill-opacity="1" fill-rule="nonzero"/><path fill="#100f0d" d="M 462.582031 845.246094 C 462.582031 841.121094 456.335938 841.121094 456.335938 845.246094 C 456.335938 846.976562 462.582031 849.328125 462.582031 845.246094 " fill-opacity="1" fill-rule="nonzero"/><path fill="#100f0d" d="M 462.582031 885.484375 C 462.582031 889.609375 468.785156 889.609375 468.785156 885.484375 C 468.785156 883.796875 462.582031 881.402344 462.582031 885.484375 " fill-opacity="1" fill-rule="nonzero"/><path fill="#100f0d" d="M 462.582031 877.453125 C 462.582031 881.582031 468.785156 881.582031 468.785156 877.453125 C 468.785156 875.722656 462.582031 873.328125 462.582031 877.453125 " fill-opacity="1" fill-rule="nonzero"/><path fill="#100f0d" d="M 462.582031 869.378906 C 462.582031 873.503906 468.785156 873.503906 468.785156 869.378906 C 468.785156 867.695312 462.582031 865.296875 462.582031 869.378906 " fill-opacity="1" fill-rule="nonzero"/><path fill="#100f0d" d="M 470.867188 885.484375 C 470.867188 889.609375 477.066406 889.609375 477.066406 885.484375 C 477.066406 883.796875 470.867188 881.402344 470.867188 885.484375 " fill-opacity="1" fill-rule="nonzero"/><path fill="#100f0d" d="M 470.867188 877.453125 C 470.867188 881.582031 477.066406 881.582031 477.066406 877.453125 C 477.066406 875.722656 470.867188 873.328125 470.867188 877.453125 " fill-opacity="1" fill-rule="nonzero"/><path fill="#100f0d" d="M 479.191406 885.484375 C 479.191406 889.609375 485.394531 889.609375 485.394531 885.484375 C 485.394531 883.796875 479.191406 881.402344 479.191406 885.484375 " fill-opacity="1" fill-rule="nonzero"/><path fill="#100f0d" d="M 479.191406 877.453125 C 479.191406 881.582031 485.394531 881.582031 485.394531 877.453125 C 485.394531 875.722656 479.191406 873.328125 479.191406 877.453125 " fill-opacity="1" fill-rule="nonzero"/><path fill="#100f0d" d="M 479.191406 869.378906 C 479.191406 873.503906 485.394531 873.503906 485.394531 869.378906 C 485.394531 867.695312 479.191406 865.296875 479.191406 869.378906 " fill-opacity="1" fill-rule="nonzero"/><path fill="#100f0d" d="M 479.191406 861.351562 C 479.191406 865.476562 485.394531 865.476562 485.394531 861.351562 C 485.394531 859.621094 479.191406 857.222656 479.191406 861.351562 " fill-opacity="1" fill-rule="nonzero"/><path fill="#100f0d" d="M 479.191406 853.273438 C 479.191406 857.402344 485.394531 857.402344 485.394531 853.273438 C 485.394531 851.546875 479.191406 849.195312 479.191406 853.273438 " fill-opacity="1" fill-rule="nonzero"/><path fill="#100f0d" d="M 479.191406 845.246094 C 479.191406 849.328125 485.394531 849.328125 485.394531 845.246094 C 485.394531 843.515625 479.191406 841.121094 479.191406 845.246094 " fill-opacity="1" fill-rule="nonzero"/><path fill="#100f0d" d="M 487.476562 885.484375 C 487.476562 889.609375 493.679688 889.609375 493.679688 885.484375 C 493.679688 883.796875 487.476562 881.402344 487.476562 885.484375 " fill-opacity="1" fill-rule="nonzero"/><path fill="#100f0d" d="M 487.476562 877.453125 C 487.476562 881.582031 493.679688 881.582031 493.679688 877.453125 C 493.679688 875.722656 487.476562 873.328125 487.476562 877.453125 " fill-opacity="1" fill-rule="nonzero"/><path fill="#100f0d" d="M 487.476562 869.378906 C 487.476562 873.503906 493.679688 873.503906 493.679688 869.378906 C 493.679688 867.695312 487.476562 865.296875 487.476562 869.378906 " fill-opacity="1" fill-rule="nonzero"/><path fill="#100f0d" d="M 495.804688 885.484375 C 495.804688 889.609375 502.007812 889.609375 502.007812 885.484375 C 502.007812 883.796875 495.804688 881.402344 495.804688 885.484375 " fill-opacity="1" fill-rule="nonzero"/><path fill="#100f0d" d="M 495.804688 877.453125 C 495.804688 881.582031 502.007812 881.582031 502.007812 877.453125 C 502.007812 875.722656 495.804688 873.328125 495.804688 877.453125 " fill-opacity="1" fill-rule="nonzero"/><path fill="#100f0d" d="M 495.804688 869.378906 C 495.804688 873.503906 502.007812 873.503906 502.007812 869.378906 C 502.007812 867.695312 495.804688 865.296875 495.804688 869.378906 " fill-opacity="1" fill-rule="nonzero"/><path fill="#100f0d" d="M 495.804688 861.351562 C 495.804688 865.476562 502.007812 865.476562 502.007812 861.351562 C 502.007812 859.621094 495.804688 857.222656 495.804688 861.351562 " fill-opacity="1" fill-rule="nonzero"/><path fill="#100f0d" d="M 495.804688 853.273438 C 495.804688 857.402344 502.007812 857.402344 502.007812 853.273438 C 502.007812 851.546875 495.804688 849.195312 495.804688 853.273438 " fill-opacity="1" fill-rule="nonzero"/><path fill="#100f0d" d="M 495.804688 845.246094 C 495.804688 849.328125 502.007812 849.328125 502.007812 845.246094 C 502.007812 843.515625 495.804688 841.121094 495.804688 845.246094 " fill-opacity="1" fill-rule="nonzero"/><path fill="#100f0d" d="M 495.804688 837.171875 C 495.804688 841.296875 502.007812 841.296875 502.007812 837.171875 C 502.007812 835.484375 495.804688 833.042969 495.804688 837.171875 " fill-opacity="1" fill-rule="nonzero"/><path fill="#100f0d" d="M 504.132812 885.484375 C 504.132812 889.609375 510.332031 889.609375 510.332031 885.484375 C 510.332031 883.796875 504.132812 881.402344 504.132812 885.484375 " fill-opacity="1" fill-rule="nonzero"/><path fill="#100f0d" d="M 504.132812 877.453125 C 504.132812 881.582031 510.332031 881.582031 510.332031 877.453125 C 510.332031 875.722656 504.132812 873.328125 504.132812 877.453125 " fill-opacity="1" fill-rule="nonzero"/><path fill="#100f0d" d="M 512.414062 885.484375 C 512.414062 889.609375 518.617188 889.609375 518.617188 885.484375 C 518.617188 883.796875 512.414062 881.402344 512.414062 885.484375 " fill-opacity="1" fill-rule="nonzero"/><path fill="#100f0d" d="M 512.414062 877.453125 C 512.414062 881.582031 518.617188 881.582031 518.617188 877.453125 C 518.617188 875.722656 512.414062 873.328125 512.414062 877.453125 " fill-opacity="1" fill-rule="nonzero"/><path fill="#100f0d" d="M 512.414062 869.378906 C 512.414062 873.503906 518.617188 873.503906 518.617188 869.378906 C 518.617188 867.695312 512.414062 865.296875 512.414062 869.378906 " fill-opacity="1" fill-rule="nonzero"/><path fill="#100f0d" d="M 512.414062 861.351562 C 512.414062 865.476562 518.617188 865.476562 518.617188 861.351562 C 518.617188 859.621094 512.414062 857.222656 512.414062 861.351562 " fill-opacity="1" fill-rule="nonzero"/><path fill="#100f0d" d="M 520.742188 885.484375 C 520.742188 889.609375 526.945312 889.609375 526.945312 885.484375 C 526.945312 883.796875 520.742188 881.402344 520.742188 885.484375 " fill-opacity="1" fill-rule="nonzero"/><path fill="#100f0d" d="M 520.742188 877.453125 C 520.742188 881.582031 526.945312 881.582031 526.945312 877.453125 C 526.945312 875.722656 520.742188 873.328125 520.742188 877.453125 " fill-opacity="1" fill-rule="nonzero"/><path fill="#100f0d" d="M 520.742188 869.378906 C 520.742188 873.503906 526.945312 873.503906 526.945312 869.378906 C 526.945312 867.695312 520.742188 865.296875 520.742188 869.378906 " fill-opacity="1" fill-rule="nonzero"/><path fill="#100f0d" d="M 520.742188 861.351562 C 520.742188 865.476562 526.945312 865.476562 526.945312 861.351562 C 526.945312 859.621094 520.742188 857.222656 520.742188 861.351562 " fill-opacity="1" fill-rule="nonzero"/><path fill="#100f0d" d="M 520.742188 853.273438 C 520.742188 857.402344 526.945312 857.402344 526.945312 853.273438 C 526.945312 851.546875 520.742188 849.195312 520.742188 853.273438 " fill-opacity="1" fill-rule="nonzero"/><path fill="#100f0d" d="M 520.742188 845.246094 C 520.742188 849.328125 526.945312 849.328125 526.945312 845.246094 C 526.945312 843.515625 520.742188 841.121094 520.742188 845.246094 " fill-opacity="1" fill-rule="nonzero"/><path fill="#100f0d" d="M 520.742188 837.171875 C 520.742188 841.296875 526.945312 841.296875 526.945312 837.171875 C 526.945312 835.484375 520.742188 833.042969 520.742188 837.171875 " fill-opacity="1" fill-rule="nonzero"/><path fill="#100f0d" d="M 520.742188 829.140625 C 520.742188 833.222656 526.945312 833.265625 526.945312 829.140625 C 526.945312 827.410156 520.742188 825.015625 520.742188 829.140625 " fill-opacity="1" fill-rule="nonzero"/><path fill="#100f0d" d="M 529.027344 885.484375 C 529.027344 889.609375 535.230469 889.609375 535.230469 885.484375 C 535.230469 883.796875 529.027344 881.402344 529.027344 885.484375 " fill-opacity="1" fill-rule="nonzero"/><path fill="#100f0d" d="M 529.027344 877.453125 C 529.027344 881.582031 535.230469 881.582031 535.230469 877.453125 C 535.230469 875.722656 529.027344 873.328125 529.027344 877.453125 " fill-opacity="1" fill-rule="nonzero"/><path fill="#100f0d" d="M 529.027344 869.378906 C 529.027344 873.503906 535.230469 873.503906 535.230469 869.378906 C 535.230469 867.695312 529.027344 865.296875 529.027344 869.378906 " fill-opacity="1" fill-rule="nonzero"/><path fill="#100f0d" d="M 529.027344 861.351562 C 529.027344 865.476562 535.230469 865.476562 535.230469 861.351562 C 535.230469 859.621094 529.027344 857.222656 529.027344 861.351562 " fill-opacity="1" fill-rule="nonzero"/><path fill="#100f0d" d="M 529.027344 853.273438 C 529.027344 857.402344 535.230469 857.402344 535.230469 853.273438 C 535.230469 851.546875 529.027344 849.195312 529.027344 853.273438 " fill-opacity="1" fill-rule="nonzero"/><path fill="#100f0d" d="M 529.027344 845.246094 C 529.027344 849.328125 535.230469 849.328125 535.230469 845.246094 C 535.230469 843.515625 529.027344 841.121094 529.027344 845.246094 " fill-opacity="1" fill-rule="nonzero"/><path fill="#100f0d" d="M 529.027344 837.171875 C 529.027344 841.296875 535.230469 841.296875 535.230469 837.171875 C 535.230469 835.484375 529.027344 833.042969 529.027344 837.171875 " fill-opacity="1" fill-rule="nonzero"/><path fill="#100f0d" d="M 529.027344 829.140625 C 529.027344 833.222656 535.230469 833.265625 535.230469 829.140625 C 535.230469 827.410156 529.027344 825.015625 529.027344 829.140625 " fill-opacity="1" fill-rule="nonzero"/><path fill="#100f0d" d="M 529.027344 821.066406 C 529.027344 825.191406 535.230469 825.191406 535.230469 821.066406 C 535.230469 819.378906 529.027344 816.984375 529.027344 821.066406 " fill-opacity="1" fill-rule="nonzero"/><path fill="#100f0d" d="M 537.355469 885.484375 C 537.355469 889.609375 543.554688 889.609375 543.554688 885.484375 C 543.554688 883.796875 537.355469 881.402344 537.355469 885.484375 " fill-opacity="1" fill-rule="nonzero"/><path fill="#100f0d" d="M 537.355469 877.453125 C 537.355469 881.582031 543.554688 881.582031 543.554688 877.453125 C 543.554688 875.722656 537.355469 873.328125 537.355469 877.453125 " fill-opacity="1" fill-rule="nonzero"/><path fill="#100f0d" d="M 545.636719 885.484375 C 545.636719 889.609375 551.839844 889.609375 551.839844 885.484375 C 551.839844 883.796875 545.636719 881.402344 545.636719 885.484375 " fill-opacity="1" fill-rule="nonzero"/><path fill="#100f0d" d="M 545.636719 877.453125 C 545.636719 881.582031 551.839844 881.582031 551.839844 877.453125 C 551.839844 875.722656 545.636719 873.328125 545.636719 877.453125 " fill-opacity="1" fill-rule="nonzero"/><path fill="#100f0d" d="M 545.636719 869.378906 C 545.636719 873.503906 551.839844 873.503906 551.839844 869.378906 C 551.839844 867.695312 545.636719 865.296875 545.636719 869.378906 " fill-opacity="1" fill-rule="nonzero"/><path fill="#100f0d" d="M 545.636719 861.351562 C 545.636719 865.476562 551.839844 865.476562 551.839844 861.351562 C 551.839844 859.621094 545.636719 857.222656 545.636719 861.351562 " fill-opacity="1" fill-rule="nonzero"/><path fill="#100f0d" d="M 545.636719 853.273438 C 545.636719 857.402344 551.839844 857.402344 551.839844 853.273438 C 551.839844 851.546875 545.636719 849.195312 545.636719 853.273438 " fill-opacity="1" fill-rule="nonzero"/><path fill="#100f0d" d="M 545.636719 845.246094 C 545.636719 849.328125 551.839844 849.328125 551.839844 845.246094 C 551.839844 843.515625 545.636719 841.121094 545.636719 845.246094 " fill-opacity="1" fill-rule="nonzero"/><path fill="#100f0d" d="M 553.964844 885.484375 C 553.964844 889.609375 560.167969 889.609375 560.167969 885.484375 C 560.167969 883.796875 553.964844 881.402344 553.964844 885.484375 " fill-opacity="1" fill-rule="nonzero"/><path fill="#100f0d" d="M 553.964844 877.453125 C 553.964844 881.582031 560.167969 881.582031 560.167969 877.453125 C 560.167969 875.722656 553.964844 873.328125 553.964844 877.453125 " fill-opacity="1" fill-rule="nonzero"/><path fill="#100f0d" d="M 562.292969 885.484375 C 562.292969 889.609375 568.496094 889.609375 568.496094 885.484375 C 568.496094 883.796875 562.292969 881.402344 562.292969 885.484375 " fill-opacity="1" fill-rule="nonzero"/><path fill="#100f0d" d="M 562.292969 877.453125 C 562.292969 881.582031 568.496094 881.582031 568.496094 877.453125 C 568.496094 875.722656 562.292969 873.328125 562.292969 877.453125 " fill-opacity="1" fill-rule="nonzero"/><path fill="#100f0d" d="M 562.292969 869.378906 C 562.292969 873.503906 568.496094 873.503906 568.496094 869.378906 C 568.496094 867.695312 562.292969 865.296875 562.292969 869.378906 " fill-opacity="1" fill-rule="nonzero"/><path fill="#100f0d" d="M 562.292969 861.351562 C 562.292969 865.476562 568.496094 865.476562 568.496094 861.351562 C 568.496094 859.621094 562.292969 857.222656 562.292969 861.351562 " fill-opacity="1" fill-rule="nonzero"/><path fill="#100f0d" d="M 570.578125 885.484375 C 570.578125 889.609375 576.777344 889.609375 576.777344 885.484375 C 576.777344 883.796875 570.578125 881.402344 570.578125 885.484375 " fill-opacity="1" fill-rule="nonzero"/><path fill="#100f0d" d="M 570.578125 877.453125 C 570.578125 881.582031 576.777344 881.582031 576.777344 877.453125 C 576.777344 875.722656 570.578125 873.328125 570.578125 877.453125 " fill-opacity="1" fill-rule="nonzero"/><path fill="#100f0d" d="M 570.578125 869.378906 C 570.578125 873.503906 576.777344 873.503906 576.777344 869.378906 C 576.777344 867.695312 570.578125 865.296875 570.578125 869.378906 " fill-opacity="1" fill-rule="nonzero"/><path fill="#100f0d" d="M 570.578125 861.351562 C 570.578125 865.476562 576.777344 865.476562 576.777344 861.351562 C 576.777344 859.621094 570.578125 857.222656 570.578125 861.351562 " fill-opacity="1" fill-rule="nonzero"/><path fill="#100f0d" d="M 570.578125 853.273438 C 570.578125 857.402344 576.777344 857.402344 576.777344 853.273438 C 576.777344 851.546875 570.578125 849.195312 570.578125 853.273438 " fill-opacity="1" fill-rule="nonzero"/><path fill="#100f0d" d="M 578.90625 885.484375 C 578.90625 889.609375 585.105469 889.609375 585.105469 885.484375 C 585.105469 883.796875 578.90625 881.402344 578.90625 885.484375 " fill-opacity="1" fill-rule="nonzero"/><path fill="#100f0d" d="M 587.1875 885.484375 C 587.1875 889.609375 593.390625 889.609375 593.390625 885.484375 C 593.390625 883.796875 587.1875 881.402344 587.1875 885.484375 " fill-opacity="1" fill-rule="nonzero"/><path fill="#100f0d" d="M 587.1875 877.453125 C 587.1875 881.582031 593.390625 881.582031 593.390625 877.453125 C 593.390625 875.722656 587.1875 873.328125 587.1875 877.453125 " fill-opacity="1" fill-rule="nonzero"/><path fill="#100f0d" d="M 587.1875 869.378906 C 587.1875 873.503906 593.390625 873.503906 593.390625 869.378906 C 593.390625 867.695312 587.1875 865.296875 587.1875 869.378906 " fill-opacity="1" fill-rule="nonzero"/><path fill="#100f0d" d="M 595.515625 885.484375 C 595.515625 889.609375 601.71875 889.609375 601.71875 885.484375 C 601.71875 883.796875 595.515625 881.402344 595.515625 885.484375 " fill-opacity="1" fill-rule="nonzero"/><path fill="#100f0d" d="M 595.515625 877.453125 C 595.515625 881.582031 601.71875 881.582031 601.71875 877.453125 C 601.71875 875.722656 595.515625 873.328125 595.515625 877.453125 " fill-opacity="1" fill-rule="nonzero"/><path fill="#100f0d" d="M 595.515625 869.378906 C 595.515625 873.503906 601.71875 873.503906 601.71875 869.378906 C 601.71875 867.695312 595.515625 865.296875 595.515625 869.378906 " fill-opacity="1" fill-rule="nonzero"/><path fill="#100f0d" d="M 595.515625 861.351562 C 595.515625 865.476562 601.71875 865.476562 601.71875 861.351562 C 601.71875 859.621094 595.515625 857.222656 595.515625 861.351562 " fill-opacity="1" fill-rule="nonzero"/><path fill="#100f0d" d="M 595.515625 853.273438 C 595.515625 857.402344 601.71875 857.402344 601.71875 853.273438 C 601.71875 851.546875 595.515625 849.195312 595.515625 853.273438 " fill-opacity="1" fill-rule="nonzero"/><path fill="#100f0d" d="M 603.800781 885.484375 C 603.800781 889.609375 610 889.609375 610 885.484375 C 610 883.796875 603.800781 881.402344 603.800781 885.484375 " fill-opacity="1" fill-rule="nonzero"/><path fill="#100f0d" d="M 603.800781 877.453125 C 603.800781 881.582031 610 881.582031 610 877.453125 C 610 875.722656 603.800781 873.328125 603.800781 877.453125 " fill-opacity="1" fill-rule="nonzero"/><path fill="#100f0d" d="M 603.800781 869.378906 C 603.800781 873.503906 610 873.503906 610 869.378906 C 610 867.695312 603.800781 865.296875 603.800781 869.378906 " fill-opacity="1" fill-rule="nonzero"/><path fill="#100f0d" d="M 603.800781 861.351562 C 603.800781 865.476562 610 865.476562 610 861.351562 C 610 859.621094 603.800781 857.222656 603.800781 861.351562 " fill-opacity="1" fill-rule="nonzero"/><path fill="#100f0d" d="M 603.800781 853.273438 C 603.800781 857.402344 610 857.402344 610 853.273438 C 610 851.546875 603.800781 849.195312 603.800781 853.273438 " fill-opacity="1" fill-rule="nonzero"/><path fill="#100f0d" d="M 603.800781 845.246094 C 603.800781 849.328125 610 849.328125 610 845.246094 C 610 843.515625 603.800781 841.121094 603.800781 845.246094 " fill-opacity="1" fill-rule="nonzero"/><path fill="#100f0d" d="M 603.800781 837.171875 C 603.800781 841.296875 610 841.296875 610 837.171875 C 610 835.484375 603.800781 833.042969 603.800781 837.171875 " fill-opacity="1" fill-rule="nonzero"/><path fill="#100f0d" d="M 612.128906 885.484375 C 612.128906 889.609375 618.328125 889.609375 618.328125 885.484375 C 618.328125 883.796875 612.128906 881.402344 612.128906 885.484375 " fill-opacity="1" fill-rule="nonzero"/><path fill="#100f0d" d="M 612.128906 877.453125 C 612.128906 881.582031 618.328125 881.582031 618.328125 877.453125 C 618.328125 875.722656 612.128906 873.328125 612.128906 877.453125 " fill-opacity="1" fill-rule="nonzero"/><path fill="#100f0d" d="M 612.128906 869.378906 C 612.128906 873.503906 618.328125 873.503906 618.328125 869.378906 C 618.328125 867.695312 612.128906 865.296875 612.128906 869.378906 " fill-opacity="1" fill-rule="nonzero"/></svg>